<svg width="95" height="48" viewBox="0 0 95 48" fill="none" xmlns="http://www.w3.org/2000/svg">
<g clip-path="url(#clip0_169_1364)">
<path d="M81.9187 43.1738C81.7798 43.7031 81.6369 44.2049 81.5202 44.7127C81.4036 45.2215 81.3271 45.7387 81.2964 46.2606C81.2657 46.7768 81.2479 47.2937 81.2227 47.8466C81.1653 47.7938 81.1245 47.7643 81.0938 47.7267C80.3727 46.8406 79.6901 45.9273 79.1359 44.9242C78.6497 44.0435 78.2813 43.1195 78.1061 42.1226C77.9615 41.2997 77.9682 40.4792 78.0977 39.6556C78.331 38.1655 78.7954 36.7417 79.3251 35.3367C79.5165 34.8284 79.7219 34.3252 79.9167 33.8181C80.088 33.3715 80.2404 32.9207 80.2973 32.4398C80.3587 31.9159 80.2666 31.4226 80.0579 30.9459C80.001 30.8167 79.9323 30.6928 79.8681 30.5669C79.1018 29.0638 78.4728 27.5018 77.9029 25.9159C77.5558 24.9488 77.3727 23.9445 77.3487 22.914C77.3124 21.3671 77.6719 19.9159 78.4214 18.5659C78.8434 17.8061 79.2704 17.0475 79.7325 16.3117C80.6853 14.7929 81.6592 13.2873 82.632 11.7809C83.3403 10.6841 83.9995 9.56053 84.5403 8.37018C85.0873 7.16806 85.502 5.92313 85.7258 4.61966C85.8787 3.72836 85.9558 2.82971 85.9094 1.92364C85.9055 1.84784 85.8994 1.76985 85.9122 1.6959C85.9647 1.38788 86.0239 1.08102 86.0836 0.759521C86.2025 0.818266 86.2276 0.919334 86.2739 1.00035C86.9437 2.16976 87.6129 3.33952 88.2787 4.51104C89.9057 7.37379 91.5344 10.2357 93.2166 13.0664C93.8026 14.0524 94.2581 15.0953 94.5394 16.2105C95.0116 18.0848 94.9256 19.9385 94.3256 21.7715C94.0471 22.6218 93.6709 23.428 93.2205 24.2C92.2622 25.8434 91.257 27.4578 90.2211 29.0529C88.5522 31.6232 86.8739 34.1877 85.2028 36.7568C84.5866 37.7044 83.995 38.6673 83.4547 39.6612C82.8464 40.7804 82.3189 41.935 81.9187 43.1738ZM90.331 15.9164C90.4979 14.8986 90.4756 13.8781 90.3545 12.8592C90.2434 11.9293 90.0358 11.0179 89.7818 10.1171C89.76 10.0407 89.726 9.96775 89.6931 9.88057C89.6713 9.91885 89.6579 9.93643 89.6506 9.95625C89.6356 9.99694 89.6205 10.0381 89.6105 10.0803C89.1952 11.8487 88.5093 13.5123 87.6726 15.1179C87.0592 16.2952 86.3699 17.4276 85.6538 18.5442C85.5902 18.6435 85.5282 18.744 85.4735 18.8314C85.6309 19.1945 87.2205 21.932 87.3874 22.126C87.4209 22.0818 87.456 22.0436 87.4823 21.9998C88.0912 20.9837 88.7135 19.9751 89.3035 18.9481C89.8337 18.0258 90.1653 17.0273 90.331 15.9164ZM85.8346 23.776C85.651 23.4559 85.4674 23.1357 85.2832 22.8159C85.0934 22.4867 84.9059 22.1561 84.7117 21.8293C84.5269 21.5176 84.3695 21.1882 84.1418 20.8754C84.081 20.9578 84.033 21.0155 83.9922 21.0782C83.4821 21.8729 82.9664 22.6641 82.4663 23.4653C82.2536 23.8054 82.0633 24.1606 81.8841 24.5194C81.4136 25.4605 81.1094 26.4545 81.0134 27.504C80.9035 28.7011 81.0765 29.8658 81.4672 30.9995C81.48 31.0364 81.5119 31.0667 81.5481 31.1197C81.8936 30.6626 82.2536 30.2421 82.5517 29.7752C83.6797 28.0094 84.8054 26.2421 85.9318 24.4751C85.9837 24.3938 86.03 24.309 86.083 24.2189C86.0065 24.0808 85.9334 23.9487 85.8346 23.776Z" fill="#008CCA"/>
<path d="M34.4834 33.2765C32.1714 33.2765 29.8919 33.2741 27.6125 33.278C26.9432 33.2791 26.2937 33.1796 25.6695 32.9373C25.5289 32.8827 25.4071 32.8785 25.2649 32.9331C24.63 33.177 23.9709 33.2836 23.2901 33.2785C22.2915 33.2709 21.2929 33.2762 20.2942 33.2768C20.1769 33.2768 20.0597 33.2813 19.9234 33.2842C19.9118 33.4002 19.8995 33.4947 19.8933 33.5896C19.8708 33.9276 19.8072 34.2574 19.7012 34.579C19.6258 34.8077 19.5227 35.0226 19.3794 35.2165C19.1176 35.5707 18.7655 35.7628 18.3267 35.7793C18.0473 35.7898 17.7663 35.7955 17.4926 35.7497C17.4399 35.4986 17.4344 34.5346 17.4835 34.2006C17.5514 34.1914 17.6241 34.1819 17.6967 34.1714C17.8875 34.1437 18.0123 34.0327 18.0735 33.8541C18.1048 33.7626 18.1285 33.6659 18.1374 33.5698C18.1504 33.4293 18.15 33.2873 18.1501 33.146C18.1509 31.6121 18.1504 30.0783 18.151 28.5444C18.1511 28.4273 18.1576 28.3101 18.1616 28.1786C18.3619 28.1363 18.5455 28.1597 18.7267 28.1557C18.922 28.1516 19.1175 28.1529 19.3128 28.1554C19.4954 28.1577 19.679 28.1437 19.8828 28.1696C19.8904 28.2755 19.9029 28.3693 19.903 28.4632C19.9044 29.4096 19.9035 30.356 19.9043 31.3025C19.9044 31.4093 19.9107 31.5162 19.9148 31.6434C20.3481 31.6865 20.7684 31.6581 21.1874 31.6634C21.5998 31.6686 22.0124 31.6645 22.4248 31.6645C22.8459 31.6645 23.2669 31.6645 23.6805 31.6645C23.7182 31.5757 23.6602 31.5472 23.6243 31.5143C23.5282 31.4263 23.4261 31.345 23.3294 31.2575C23.2085 31.1484 23.0919 31.0345 22.9712 30.925C22.6445 30.6284 22.4988 30.2595 22.5117 29.8192C22.5205 29.5159 22.5134 29.2121 22.5134 28.9103C24.2699 27.7609 26.5855 27.7614 28.4325 28.9068C28.4325 29.0317 28.435 29.1611 28.432 29.2903C28.4271 29.4969 28.4123 29.7035 28.4128 29.91C28.4135 30.2907 28.2698 30.6101 28.0075 30.8758C27.8398 31.0456 27.6581 31.2016 27.4819 31.3631C27.3951 31.4426 27.3067 31.5204 27.2252 31.5935C27.2373 31.6242 27.2393 31.636 27.2459 31.6439C27.2517 31.6509 27.2628 31.6573 27.2715 31.6573C28.2917 31.6598 29.3119 31.662 30.332 31.6627C30.3737 31.6627 30.4155 31.6486 30.4656 31.6395C30.4578 31.557 30.4576 31.4805 30.4424 31.4071C30.3375 30.8988 30.3438 30.3892 30.4489 29.8841C30.535 29.4698 30.653 29.0622 30.7451 28.6489C30.7784 28.4993 30.8647 28.4334 30.9986 28.3863C31.3384 28.2668 31.6882 28.1911 32.0433 28.1478C32.6373 28.0753 33.2332 28.0557 33.8294 28.1364C34.1974 28.1863 34.5545 28.2666 34.8763 28.4648C35.2667 28.7053 35.5146 29.0409 35.5984 29.4995C35.6691 29.8863 35.6982 30.2755 35.7058 30.6673C35.7089 30.8304 35.7101 30.9937 35.7061 31.1567C35.7027 31.2953 35.7524 31.411 35.8375 31.5155C35.9172 31.6134 36.0141 31.6675 36.146 31.6657C36.4607 31.6613 36.7755 31.6644 37.0903 31.6645C37.3822 31.6645 37.674 31.6645 37.9675 31.6645C38.0457 31.5416 38.0137 31.419 38.0139 31.3048C38.0166 29.8145 38.0157 28.3241 38.0157 26.8338C38.0157 26.7032 38.0142 26.5727 38.0167 26.4422C38.0176 26.3903 38.0273 26.3386 38.0323 26.2927C38.3026 26.243 39.423 26.2397 39.7279 26.284C39.7356 26.2913 39.7453 26.2975 39.7504 26.3063C39.7557 26.3154 39.7589 26.3271 39.7589 26.3376C39.7623 28.5891 39.7654 30.8407 39.7676 33.0922C39.7677 33.135 39.7581 33.1779 39.7509 33.2205C39.7494 33.2295 39.739 33.2371 39.7182 33.2645C39.6718 33.2688 39.6092 33.2797 39.5465 33.2797C38.4394 33.2808 37.3322 33.2781 36.225 33.2829C36.0428 33.2838 35.8843 33.2418 35.7501 33.1181C35.7149 33.1725 35.6862 33.2168 35.6475 33.2765C35.274 33.2765 34.895 33.2765 34.4834 33.2765ZM32.0804 31.143C32.1257 31.3091 32.1172 31.4895 32.2224 31.6652C32.4074 31.6652 32.6015 31.6652 32.7956 31.6652C32.9802 31.6652 33.1648 31.6682 33.3492 31.6643C33.5408 31.6602 33.7347 31.6837 33.9323 31.6458C33.94 31.5839 33.9495 31.5424 33.9496 31.5007C33.9507 31.1853 33.9535 30.8698 33.9478 30.5543C33.9457 30.4355 33.9214 30.3172 33.9091 30.1984C33.8933 30.0459 33.8082 29.9375 33.6903 29.851C33.5742 29.766 33.4423 29.7246 33.3008 29.6975C32.9749 29.6354 32.6518 29.6668 32.3287 29.711C32.2684 29.7193 32.2113 29.7511 32.163 29.7684C32.0566 30.2532 32.0376 30.5452 32.0804 31.143ZM24.3236 30.0447C24.6007 30.5041 25 30.8211 25.4656 31.0508C26.0993 30.7203 26.5546 30.2823 26.7131 29.8573C26.2896 29.5759 24.6262 29.5702 24.2493 29.858C24.2656 29.9027 24.2834 29.9517 24.3236 30.0447Z" fill="#1E4381"/>
<path d="M57.7387 33.2807C55.6436 33.2807 53.5809 33.2812 51.5182 33.2803C50.8457 33.28 50.1727 33.2984 49.5021 33.221C49.3522 33.2037 49.1976 33.2052 49.0473 33.2196C48.6494 33.2577 48.3944 33.5079 48.3313 33.9014C48.2526 34.3926 48.5452 34.8306 49.0067 34.8821C49.0818 34.8905 49.1556 34.9101 49.2267 34.9239C49.3217 35.2014 49.4663 36.162 49.4539 36.4461C49.3968 36.4584 49.3362 36.4805 49.2747 36.4833C48.9602 36.4972 48.647 36.5026 48.3345 36.4377C47.7002 36.306 47.2279 35.9591 46.9106 35.396C46.6462 34.9267 46.5692 34.4142 46.5742 33.8857C46.5766 33.6247 46.5967 33.364 46.6693 33.1106C46.8917 32.3347 47.3952 31.8708 48.1907 31.7271C48.5682 31.659 48.9462 31.6623 49.3261 31.7002C49.5731 31.7248 49.821 31.7414 50.0803 31.7626C50.0928 31.6801 50.1098 31.6181 50.1102 31.5559C50.1125 31.1316 50.1157 30.7072 50.1086 30.283C50.1064 30.1541 50.0819 30.0235 50.0509 29.8978C50.0045 29.7104 49.8749 29.599 49.6849 29.5742C49.5564 29.5575 49.4254 29.5558 49.2955 29.5557C48.6875 29.5554 48.0796 29.5583 47.4717 29.5587C47.4083 29.5587 47.3449 29.5494 47.2864 29.5449C47.2184 29.2684 47.1866 28.7486 47.218 28.4141C47.3762 28.3738 47.5402 28.3211 47.7083 28.2911C48.5109 28.1481 49.3183 28.0525 50.1359 28.0735C50.3978 28.0802 50.6541 28.1185 50.905 28.1945C51.4228 28.3515 51.7345 28.6923 51.8145 29.2316C51.8431 29.4246 51.8634 29.6204 51.8661 29.8152C51.8732 30.3265 51.8679 30.8379 51.8692 31.3493C51.8694 31.4444 51.877 31.5396 51.882 31.6547C51.9752 31.6585 52.0485 31.6633 52.1218 31.6642C54.8567 31.6944 58.5742 31.6791 58.9102 31.634C58.9158 31.5548 58.9214 31.4712 58.9264 31.3876C58.985 30.4069 59.6726 29.5315 60.6036 29.2839C62.2468 28.8467 63.377 30.109 63.483 31.2519C63.4953 31.3806 63.5076 31.5093 63.521 31.6497C63.7029 31.6497 63.8721 31.6497 64.0334 31.6497C64.0518 31.6169 64.0702 31.5989 64.0702 31.5809C64.0685 31.0917 64.0847 30.6014 64.0574 30.1135C64.0194 29.4376 63.6985 28.9142 63.1175 28.5626C62.825 28.3856 62.4974 28.3049 62.1608 28.2665C61.7813 28.2233 61.4012 28.2439 61.0244 28.2977C60.5305 28.3681 60.0382 28.4497 59.5454 28.5258C59.4812 28.5357 59.417 28.5413 59.3327 28.5512C59.3171 28.4873 59.297 28.4284 59.2897 28.3678C59.2507 28.044 59.2133 27.7199 59.1798 27.3954C59.1714 27.3111 59.1787 27.2252 59.1787 27.1317C59.4845 27.0244 59.7932 26.968 60.099 26.9089C60.5779 26.8164 61.059 26.729 61.5429 26.6708C62.1379 26.599 62.734 26.6105 63.3217 26.7566C64.3532 27.0131 65.0704 27.6408 65.4845 28.6137C65.6905 29.0972 65.806 29.6068 65.8216 30.1339C65.8334 30.5253 65.8283 30.9171 65.8322 31.3087C65.8334 31.4153 65.8395 31.5218 65.8434 31.623C66.0957 31.6739 67.6518 31.6871 68.1323 31.6457C68.2082 31.5663 68.1775 31.4638 68.1775 31.371C68.1803 30.4244 68.1792 29.4779 68.1798 28.5313C68.1798 28.4249 68.1865 28.3185 68.1898 28.2179C68.4304 28.1593 69.5277 28.1488 69.9083 28.1995C69.9162 28.2554 69.9312 28.3166 69.9312 28.3778C69.9329 29.9337 69.9329 31.4895 69.9318 33.0453C69.9318 33.1094 69.9223 33.1735 69.9156 33.2513C69.8481 33.2616 69.7867 33.2762 69.7242 33.2791C69.6265 33.2838 69.5288 33.2806 69.4311 33.2806C65.5448 33.2807 61.6579 33.2807 57.7387 33.2807ZM61.6378 31.6642C61.6713 31.6426 61.731 31.6244 61.7344 31.5988C61.7656 31.363 61.7137 31.1458 61.5541 30.9645C61.3498 30.7327 61.0395 30.742 60.8564 30.9895C60.7169 31.1788 60.6672 31.3946 60.6996 31.6205C60.7336 31.6386 60.7521 31.6566 60.771 31.6569C61.0412 31.6612 61.3113 31.663 61.6378 31.6642Z" fill="#1E4381"/>
<path d="M6.70444 31.2674C6.70444 31.4072 6.70444 31.5147 6.70444 31.634C6.78666 31.6461 6.84872 31.6631 6.91079 31.6631C8.35391 31.6647 9.79704 31.6646 11.2402 31.6634C11.3035 31.6634 11.3668 31.6505 11.437 31.6429C11.4526 31.447 11.411 31.267 11.3911 31.0852C11.3426 30.6404 11.3335 30.1963 11.4206 29.7539C11.5464 29.1154 11.9076 28.6781 12.5162 28.4447C12.875 28.307 13.2509 28.2433 13.6285 28.2221C14.5721 28.169 15.5156 28.1738 16.452 28.3308C16.4729 28.3343 16.4925 28.3453 16.529 28.359C16.5366 28.4129 16.5529 28.4748 16.553 28.5368C16.5544 30.0483 16.5542 31.5599 16.5535 33.0714C16.5535 33.1245 16.5454 33.1777 16.5397 33.2476C16.4736 33.2591 16.4129 33.2753 16.3516 33.2791C16.2652 33.2844 16.1781 33.2806 16.0913 33.2806C13.4654 33.2806 10.8395 33.2811 8.21371 33.2804C6.77064 33.2801 5.32753 33.2788 3.88446 33.2758C3.45005 33.2749 3.01864 33.2378 2.58898 33.1687C1.78627 33.0395 1.31265 32.5648 1.13745 31.7844C1.01774 31.2512 0.984703 30.7084 1.03466 30.1634C1.05545 29.9367 1.08444 29.7093 1.13062 29.4866C1.27626 28.7842 1.71002 28.3548 2.40746 28.2166C2.76777 28.1452 3.13683 28.1009 3.50378 28.0836C4.41524 28.0408 5.32599 28.089 6.23533 28.1553C6.38429 28.1661 6.5365 28.1752 6.67358 28.228C6.68435 28.2588 6.69763 28.2791 6.69769 28.2995C6.70065 29.2781 6.70249 30.2567 6.70444 31.2674ZM4.9405 29.7722C4.91337 29.7151 4.86244 29.7026 4.80652 29.7025C4.37432 29.7018 3.94209 29.6994 3.50992 29.7032C3.42482 29.704 3.33865 29.7241 3.25522 29.7445C3.02356 29.8012 2.88202 29.9517 2.82258 30.181C2.73599 30.5151 2.74975 30.8494 2.85117 31.1753C2.923 31.4061 3.07943 31.5677 3.32979 31.6096C3.46788 31.6327 3.60739 31.6577 3.74673 31.6609C4.09256 31.6686 4.43868 31.6654 4.78466 31.6636C4.83416 31.6634 4.88356 31.6464 4.94948 31.634C4.94948 31.0207 4.94948 30.4261 4.9405 29.7722ZM13.1651 30.5997C13.1417 31.2844 13.1542 31.4178 13.2633 31.6462C13.7191 31.6883 14.5502 31.6753 14.7948 31.617C14.7961 31.4197 14.7978 31.216 14.7984 31.0121C14.799 30.8063 14.8037 30.6003 14.7971 30.3948C14.7907 30.1933 14.8296 29.9877 14.7621 29.7847C14.428 29.7518 14.1048 29.7552 13.7818 29.7786C13.7074 29.784 13.6339 29.8081 13.561 29.8276C13.4029 29.8702 13.2912 29.9715 13.2462 30.1266C13.2075 30.2603 13.1933 30.4012 13.1651 30.5997Z" fill="#1E4381"/>
<path d="M90.1812 42.236C90.6606 42.4213 90.9162 42.7939 91.0234 43.2773C91.0775 43.5204 91.1094 43.7693 91.1373 44.0172C91.2282 44.8158 91.312 45.6152 91.3985 46.4144C91.3996 46.424 91.3918 46.4346 91.3879 46.4471C91.3365 46.5084 91.2762 46.5052 91.2238 46.4522C91.1635 46.3906 91.1138 46.3183 91.0563 46.2534C90.7287 45.8834 90.3201 45.6847 89.8251 45.6898C89.6202 45.6918 89.4148 45.7159 89.2117 45.7446C88.9862 45.7765 88.7646 45.8341 88.5397 45.8636C88.3683 45.8861 88.1931 45.8958 88.0206 45.8872C87.6059 45.8666 87.2649 45.6917 87.0377 45.3381C86.9155 45.1477 86.8106 44.9423 86.7257 44.7326C86.5326 44.2576 86.4254 43.7567 86.3451 43.2528C86.2284 42.5237 86.133 41.7912 86.028 41.0603C86.0158 40.9746 86.0359 40.9106 86.1525 40.885C86.1983 40.9232 86.2563 40.9683 86.3099 41.0181C86.6694 41.35 87.098 41.5036 87.5814 41.5231C87.9525 41.5381 88.3159 41.4766 88.6809 41.4251C88.8734 41.3979 89.0688 41.3787 89.263 41.3753C89.69 41.3677 90.0405 41.5438 90.3246 41.8568C90.4167 41.9581 90.511 42.06 90.5685 42.2159C90.4468 42.2063 90.3687 42.1472 90.2426 42.0938C90.0411 42.0065 89.8714 41.979 89.6967 41.9738C89.1748 41.9583 88.6775 42.0915 88.1774 42.2125C88.3415 42.2243 88.5062 42.2442 88.6647 42.2206C89.172 42.145 89.6766 42.1278 90.1812 42.236Z" fill="#008CCA"/>
<path d="M32.5384 39.7537C32.8225 39.8248 33.0817 39.8174 33.3425 39.8009C33.579 39.786 33.8162 39.7821 34.0731 39.7725C34.1299 40.0471 34.1015 40.3024 34.0941 40.5646C33.9355 40.6465 33.7687 40.5466 33.5971 40.6008C33.6069 40.6448 33.6108 40.6842 33.6245 40.7199C33.7527 41.0514 33.7207 41.3844 33.6165 41.7108C33.5371 41.9594 33.3671 42.1395 33.1294 42.2535C32.8906 42.368 32.6376 42.4235 32.3751 42.433C32.1806 42.4399 31.9857 42.4343 31.7802 42.4343C31.758 42.4738 31.7294 42.5074 31.7188 42.546C31.6458 42.8144 31.7035 42.9041 31.9818 42.9394C32.1105 42.9557 32.2418 42.9497 32.3717 42.9588C32.6528 42.9786 32.9338 43.0011 33.2147 43.0237C33.2578 43.0272 33.301 43.0344 33.3432 43.0439C33.8433 43.1565 34.0815 43.4445 34.1019 43.9599C34.132 44.7195 33.8239 45.1429 33.0807 45.3265C32.4705 45.4772 31.8558 45.474 31.2444 45.319C31.1816 45.3031 31.1192 45.2838 31.0588 45.2604C30.3965 45.0049 30.2106 44.3061 30.6582 43.748C30.7393 43.6469 30.8325 43.5554 30.9348 43.4436C30.8934 43.3852 30.8493 43.328 30.8107 43.2674C30.6703 43.0471 30.6574 42.8194 30.7805 42.5874C30.8409 42.4737 30.906 42.3625 30.9725 42.2439C30.9368 42.2036 30.912 42.169 30.881 42.1413C30.4142 41.7243 30.3828 40.969 30.5856 40.4753C30.7226 40.1415 30.9885 39.9419 31.3209 39.8291C31.633 39.7232 31.956 39.6908 32.2843 39.7184C32.3598 39.7248 32.4347 39.7395 32.5384 39.7537ZM32.3631 41.6062C32.5181 41.5516 32.6207 41.444 32.653 41.2842C32.6877 41.1132 32.6962 40.9389 32.6123 40.7762C32.5013 40.5609 32.3019 40.5279 32.0879 40.5278C31.8714 40.5277 31.6747 40.5745 31.5696 40.7881C31.512 40.9053 31.4895 41.0343 31.5073 41.1677C31.5458 41.4567 31.7034 41.6189 31.9924 41.6443C32.0982 41.6535 32.2067 41.6328 32.3631 41.6062ZM31.9137 43.8205C31.8187 43.8205 31.7238 43.8205 31.6121 43.8205C31.5565 43.9359 31.4968 44.0379 31.4574 44.1471C31.4159 44.2621 31.4653 44.3643 31.5576 44.4332C31.6163 44.477 31.6906 44.5068 31.7624 44.5244C32.0831 44.6031 32.4061 44.5996 32.7258 44.5211C32.8066 44.5013 32.8868 44.4569 32.9536 44.4059C33.0591 44.3253 33.0733 44.2065 33.0489 44.0818C33.0266 43.9674 32.9365 43.9255 32.8403 43.9039C32.7462 43.8827 32.6484 43.8764 32.5519 43.8683C32.3582 43.8522 32.1642 43.8394 31.9137 43.8205Z" fill="#1E4381"/>
<path d="M15.7884 43.6471C15.5181 43.6471 15.2799 43.6471 15.0293 43.6471C15.0015 43.5676 14.9679 43.5 14.9543 43.4285C14.7379 42.2973 14.5235 41.1658 14.3108 40.0339C14.2972 39.9617 14.3006 39.8863 14.2957 39.805C14.3517 39.795 14.3934 39.7812 14.4352 39.781C14.7055 39.779 14.9758 39.78 15.2549 39.78C15.2808 39.8537 15.3112 39.9116 15.321 39.9728C15.4574 40.8314 15.5908 41.6906 15.7259 42.5494C15.7343 42.6024 15.7454 42.6569 15.7676 42.7049C15.778 42.7275 15.8171 42.7473 15.8442 42.7486C15.8717 42.75 15.9138 42.7345 15.9256 42.7132C15.9513 42.6669 15.9669 42.6133 15.9775 42.5608C16.1326 41.794 16.286 41.0268 16.4404 40.2599C16.4659 40.1331 16.4942 40.007 16.5194 39.8887C16.802 39.8435 17.3114 39.8436 17.5919 39.8887C17.6609 40.2204 17.733 40.5592 17.8017 40.8987C17.9138 41.4524 18.0233 42.0068 18.1354 42.5606C18.146 42.613 18.1609 42.6667 18.1863 42.7129C18.198 42.7343 18.2402 42.7499 18.2677 42.7485C18.2947 42.7471 18.3354 42.7268 18.344 42.7046C18.3673 42.645 18.3811 42.5806 18.3911 42.5168C18.5264 41.658 18.66 40.799 18.7954 39.9402C18.802 39.8988 18.8202 39.8592 18.8312 39.8244C19.0667 39.7668 19.5106 39.7618 19.8115 39.8127C19.8139 39.8522 19.8254 39.8958 19.8177 39.9357C19.581 41.1611 19.3604 42.3896 19.117 43.6043C18.8568 43.6572 17.8208 43.6638 17.4891 43.6156C17.3554 42.9109 17.2201 42.198 17.076 41.4383C16.9974 41.5822 16.9827 41.6936 16.9627 41.8033C16.8688 42.3164 16.7759 42.8296 16.6802 43.3423C16.6625 43.437 16.6337 43.5296 16.6052 43.6423C16.3387 43.644 16.0795 43.6456 15.7884 43.6471Z" fill="#1E4381"/>
<path d="M4.87429 41.8772C5.13561 42.4631 5.38551 43.027 5.63795 43.5966C5.59452 43.6228 5.56918 43.6512 5.54362 43.6514C5.18666 43.6544 4.82967 43.6534 4.45791 43.6534C4.41597 43.5747 4.37014 43.5027 4.33752 43.4251C4.1313 42.9349 3.92857 42.4432 3.72337 41.9526C3.67356 41.8335 3.61879 41.7165 3.56958 41.606C3.28472 41.5667 3.13156 41.5796 2.87529 41.6653C2.86907 41.7423 2.85667 41.8268 2.85633 41.9114C2.8544 42.3896 2.85674 42.8677 2.85416 43.3459C2.85366 43.4409 2.87926 43.5424 2.7937 43.6521C2.48005 43.654 2.14909 43.6744 1.8091 43.6365C1.79934 43.581 1.78585 43.5401 1.78582 43.4992C1.78476 41.8154 1.78492 40.1318 1.78492 38.4439C1.96242 38.3606 2.13722 38.4026 2.30588 38.3987C2.47645 38.3948 2.64915 38.3813 2.82677 38.4154C2.88214 38.6726 2.8479 38.9224 2.85406 39.1698C2.86 39.4087 2.85534 39.648 2.85534 39.887C2.85534 40.1357 2.85534 40.3844 2.85534 40.6454C3.10128 40.7036 3.31986 40.6469 3.56228 40.6054C3.86033 39.8924 4.11496 39.155 4.41011 38.4396C4.6396 38.3857 5.08412 38.3757 5.59839 38.4131C5.57838 38.4858 5.56724 38.5577 5.53936 38.6224C5.23442 39.3302 4.92686 40.0368 4.62005 40.7437C4.59843 40.7935 4.58104 40.8456 4.55484 40.8928C4.50227 40.9876 4.51294 41.0744 4.55849 41.1709C4.66505 41.3966 4.76202 41.6268 4.87429 41.8772Z" fill="#1E4381"/>
<path d="M41.9763 26.2538C42.3312 26.2587 42.6546 26.2431 42.9756 26.2637C42.9918 26.3157 43.0091 26.3455 43.0091 26.3753C43.0104 28.6584 43.0103 30.9415 43.0103 33.2283C42.8109 33.3188 42.614 33.2651 42.4234 33.2745C42.2394 33.2835 42.0545 33.2796 41.8701 33.2756C41.6775 33.2714 41.4828 33.2951 41.2833 33.2566C41.2733 33.2019 41.2593 33.1611 41.2593 33.1202C41.2582 30.8481 41.2583 28.5759 41.2583 26.2895C41.3337 26.2759 41.3945 26.2572 41.4557 26.2554C41.6184 26.251 41.7812 26.2538 41.9763 26.2538Z" fill="#1E4381"/>
<path d="M48.4682 41.5206C48.4699 40.9551 48.4714 40.4223 48.4743 39.8895C48.4744 39.8699 48.489 39.8504 48.5056 39.8088C48.6513 39.7697 48.8135 39.7954 48.9725 39.7909C49.124 39.7866 49.2757 39.79 49.4289 39.79C49.4716 39.845 49.51 39.8943 49.553 39.9498C49.6428 39.9081 49.73 39.8662 49.8183 39.8268C50.193 39.6599 50.5778 39.6534 50.9624 39.7768C51.3016 39.8857 51.5462 40.1158 51.6733 40.4473C51.7543 40.6586 51.8205 40.8824 51.8476 41.1062C51.9063 41.5927 51.916 42.0825 51.8155 42.5672C51.7957 42.6627 51.772 42.7582 51.7406 42.8503C51.5915 43.2862 51.2892 43.557 50.8454 43.67C50.4826 43.7624 50.1144 43.7556 49.7454 43.7249C49.6818 43.7196 49.6186 43.7095 49.5426 43.7C49.4778 43.9647 49.5177 44.225 49.5101 44.4823C49.5028 44.7305 49.5128 44.9793 49.5043 45.2289C49.3286 45.3021 49.1646 45.2654 49.0054 45.2713C48.8433 45.2774 48.6808 45.2727 48.5289 45.2727C48.4343 45.1644 48.4701 45.0507 48.4698 44.9465C48.4672 43.8154 48.4682 42.6843 48.4682 41.5206ZM50.3433 40.6587C50.0535 40.5821 49.7903 40.661 49.5395 40.7772C49.494 41.0867 49.498 42.5329 49.5447 42.7893C49.5903 42.7998 49.6411 42.8195 49.6926 42.8219C49.8551 42.8294 50.0185 42.8415 50.1803 42.8316C50.4946 42.8125 50.6864 42.6593 50.7647 42.3565C50.8729 41.9383 50.869 41.5159 50.7573 41.0985C50.7049 40.9025 50.6001 40.7399 50.3433 40.6587Z" fill="#1E4381"/>
<path d="M46.0069 43.7433C45.7721 43.7358 45.5688 43.7283 45.3535 43.7203C45.2948 43.8911 45.323 44.0542 45.3187 44.2133C45.3142 44.3872 45.3177 44.5613 45.3177 44.7354C45.3177 44.8974 45.3177 45.0595 45.3177 45.2338C45.138 45.3027 44.9643 45.2686 44.7959 45.2708C44.6359 45.2728 44.473 45.2929 44.3444 45.2593C44.3101 45.2284 44.3003 45.2225 44.2949 45.2139C44.2894 45.2049 44.286 45.1934 44.2855 45.1829C44.2819 45.107 44.2768 45.0312 44.2769 44.9553C44.2777 43.2696 44.279 41.5839 44.2814 39.8982C44.2814 39.8782 44.2953 39.8583 44.3027 39.8385C44.5132 39.7773 44.8128 39.7679 45.2656 39.8083C45.2906 39.8519 45.3163 39.8966 45.3446 39.9459C45.3773 39.9377 45.4111 39.936 45.4379 39.9215C45.7198 39.7682 46.0156 39.681 46.3411 39.6963C46.9396 39.7244 47.3482 40.0113 47.5391 40.5786C47.6112 40.793 47.657 41.0207 47.681 41.2459C47.7274 41.6795 47.725 42.1153 47.6364 42.5452C47.6081 42.6826 47.5661 42.8192 47.514 42.9495C47.3816 43.2807 47.1432 43.5047 46.8057 43.6227C46.5569 43.7097 46.301 43.7467 46.0069 43.7433ZM45.3112 41.4274C45.3112 41.6549 45.3078 41.8826 45.3122 42.11C45.3164 42.334 45.2904 42.5603 45.3359 42.8006C45.5979 42.8379 45.8439 42.8605 46.0899 42.8226C46.3074 42.789 46.4698 42.6677 46.5454 42.4542C46.5813 42.3531 46.6041 42.2464 46.624 42.1406C46.687 41.805 46.6646 41.4702 46.5868 41.141C46.5123 40.8255 46.3277 40.6534 46.0328 40.632C45.7828 40.6138 45.5412 40.6605 45.3112 40.8139C45.3112 40.9977 45.3112 41.1808 45.3112 41.4274Z" fill="#1E4381"/>
<path d="M27.2649 43.6814C26.7985 43.5557 26.5462 43.2481 26.4178 42.8282C26.2562 42.2999 26.2442 41.7579 26.3106 41.2145C26.3355 41.0112 26.3816 40.8076 26.4433 40.6121C26.593 40.137 26.951 39.7438 27.659 39.6997C27.8733 39.6863 28.0908 39.7173 28.3064 39.7333C28.4242 39.742 28.5411 39.7618 28.6613 39.7769C28.7271 39.603 28.6933 39.4392 28.6985 39.279C28.7041 39.1054 28.6959 38.9313 28.7009 38.7576C28.7056 38.5977 28.6758 38.4345 28.7322 38.2561C29.0581 38.2429 29.3781 38.2403 29.6761 38.2568C29.7054 38.2853 29.7151 38.2917 29.7204 38.3007C29.7255 38.3096 29.728 38.3209 29.7285 38.3313C29.7317 38.4071 29.7363 38.483 29.7363 38.5589C29.7357 40.2211 29.7345 41.8834 29.7324 43.5456C29.7324 43.5661 29.7193 43.5865 29.7086 43.6177C29.6733 43.6261 29.6323 43.6435 29.5911 43.6441C29.3635 43.6473 29.1357 43.6416 28.9082 43.6488C28.7994 43.6522 28.7229 43.6065 28.6475 43.5229C28.2131 43.7038 27.7654 43.814 27.2649 43.6814ZM28.6992 40.7946C28.698 40.7226 28.672 40.6644 28.5946 40.6549C28.4129 40.6325 28.231 40.6096 28.0484 40.5979C27.7438 40.5783 27.4922 40.6987 27.3975 41.1C27.3019 41.5051 27.2967 41.916 27.3873 42.3241C27.4599 42.651 27.6507 42.8121 27.9824 42.8065C28.2179 42.8027 28.4536 42.7721 28.6668 42.6828C28.6797 42.6492 28.694 42.6294 28.6941 42.6095C28.697 42.0249 28.6985 41.4403 28.6992 40.7946Z" fill="#1E4381"/>
<path d="M70.3131 42.7602C70.3131 43.0634 70.3131 43.3342 70.3131 43.5988C70.0497 43.6627 69.5535 43.6637 69.2828 43.6021C69.28 43.5002 69.275 43.3934 69.2745 43.2867C69.2733 42.6998 69.2778 42.1129 69.2705 41.526C69.2683 41.3537 69.2415 41.1805 69.2119 41.01C69.1718 40.7747 69.0121 40.6549 68.7855 40.6289C68.6795 40.6167 68.5684 40.6223 68.4629 40.641C68.3167 40.6668 68.1582 40.6593 68.0209 40.7815C67.998 41.247 68.0142 41.7239 68.0108 42.2004C68.0075 42.666 68.0125 43.1317 68.008 43.5891C67.7786 43.6591 67.4951 43.6689 67.0173 43.6295C66.9358 43.54 66.971 43.4263 66.9705 43.3227C66.9682 42.1598 66.9693 40.9969 66.9693 39.834C66.9693 39.4101 66.9682 38.9863 66.9699 38.5624C66.9699 38.4661 66.9772 38.3699 66.9816 38.2607C67.3215 38.2607 67.6441 38.2607 67.9829 38.2607C67.9924 38.342 68.0086 38.4151 68.0086 38.4882C68.0114 38.8904 68.0091 39.2925 68.0108 39.6946C68.0114 39.7669 68.0237 39.8392 68.0326 39.9317C68.1425 39.8903 68.2335 39.8593 68.3217 39.8225C68.5879 39.7117 68.8642 39.6775 69.15 39.694C69.6808 39.7247 70.0145 39.9796 70.1781 40.4917C70.2646 40.7622 70.3076 41.0415 70.3092 41.3258C70.312 41.7931 70.312 42.2604 70.3131 42.7602Z" fill="#1E4381"/>
<path d="M60.2907 39.7669C60.6317 39.7413 60.9449 39.7074 61.258 39.7017C61.4293 39.6985 61.6046 39.728 61.772 39.7688C62.1504 39.8612 62.4044 40.0968 62.4943 40.4829C62.5305 40.6402 62.5512 40.8041 62.554 40.9655C62.5623 41.4109 62.5568 41.8565 62.5573 42.302C62.5573 42.3781 62.5557 42.4542 62.5579 42.5302C62.5663 42.7954 62.5752 42.8123 62.8135 43.0035C62.8046 43.227 62.7951 43.4638 62.785 43.7172C62.3754 43.7808 62.0187 43.6979 61.685 43.4902C61.5499 43.537 61.4182 43.5826 61.2859 43.6287C60.9839 43.7343 60.6725 43.7624 60.356 43.7374C59.8051 43.6937 59.4507 43.3689 59.3782 42.8213C59.3514 42.6185 59.3525 42.4076 59.3737 42.204C59.4139 41.8261 59.6159 41.5569 59.9832 41.4355C60.1367 41.3849 60.2957 41.3453 60.4554 41.3242C60.7026 41.2916 60.9521 41.2797 61.2005 41.2579C61.2954 41.2495 61.3908 41.238 61.4829 41.2283C61.5387 41.0955 61.5242 40.9757 61.5052 40.8601C61.4818 40.7177 61.3925 40.6263 61.2463 40.6064C61.1609 40.5947 61.0732 40.5891 60.9867 40.5917C60.586 40.604 60.1852 40.6202 59.7845 40.6346C59.7432 40.6361 59.7013 40.6348 59.6427 40.6348C59.6048 40.3972 59.593 40.1749 59.6025 39.9369C59.8157 39.8359 60.0457 39.8272 60.2907 39.7669ZM60.5698 42.8503C60.9008 42.9313 61.2184 42.8938 61.5192 42.7309C61.5192 42.5348 61.5197 42.3294 61.5181 42.1241C61.5181 42.0829 61.5075 42.0419 61.5019 42.0049C61.2457 41.9696 60.8137 41.9945 60.6591 42.0547C60.5302 42.1051 60.4375 42.1962 60.4152 42.3353C60.3873 42.5086 60.3761 42.6836 60.5698 42.8503Z" fill="#1E4381"/>
<path d="M22.5434 42.9647C22.4146 42.6574 22.3618 42.3598 22.3567 42.0527C22.3508 41.6941 22.3474 41.3365 22.4274 40.9826C22.5912 40.2581 23.0004 39.7275 23.9876 39.6999C24.1701 39.6948 24.3568 39.711 24.5362 39.7454C25.1954 39.8718 25.5804 40.2783 25.6898 40.9436C25.7306 41.1913 25.7543 41.4383 25.7036 41.6886C25.6738 41.8354 25.6974 41.9913 25.6386 42.1499C25.2677 42.1905 24.9012 42.1635 24.5359 42.1683C24.1686 42.1732 23.8012 42.1694 23.4365 42.1694C23.4037 42.5367 23.5161 42.7121 23.8293 42.7861C23.9441 42.8133 24.0652 42.8275 24.183 42.8251C24.5513 42.8175 24.9194 42.7994 25.2875 42.7848C25.3733 42.7814 25.459 42.776 25.5598 42.7707C25.6326 43.02 25.6075 43.2639 25.5964 43.5292C25.4337 43.5656 25.2774 43.6022 25.1204 43.6353C24.7155 43.7206 24.3059 43.7624 23.8927 43.7393C23.7206 43.7297 23.5463 43.7068 23.3798 43.6637C23.0042 43.5666 22.7169 43.3506 22.5434 42.9647ZM23.9279 40.5546C23.4904 40.6803 23.3724 40.8629 23.419 41.3418C23.6906 41.4003 24.4796 41.3943 24.6924 41.3316C24.7359 41.1663 24.6866 41.0101 24.6343 40.8571C24.5899 40.7275 24.4979 40.6314 24.3627 40.6009C24.238 40.5727 24.1084 40.5661 23.9279 40.5546Z" fill="#1E4381"/>
<path d="M43.4499 43.7323C43.0674 43.7541 42.7303 43.6968 42.4387 43.4973C42.189 43.5696 41.9546 43.6519 41.7136 43.7038C41.4035 43.7706 41.0889 43.7723 40.7821 43.6734C40.4969 43.5815 40.2933 43.3958 40.19 43.1125C40.0601 42.7559 40.0463 42.3917 40.1462 42.0246C40.2163 41.7672 40.3739 41.576 40.6177 41.4781C40.7966 41.4062 40.9882 41.356 41.1789 41.3263C41.4244 41.288 41.6747 41.2803 41.9229 41.2585C42.0183 41.2501 42.1136 41.2392 42.2074 41.2296C42.2719 41.1022 42.252 40.9824 42.2375 40.8667C42.2188 40.7181 42.1347 40.6303 41.9877 40.6085C41.8812 40.5927 41.7718 40.5907 41.6639 40.5931C41.2423 40.6026 40.8207 40.6164 40.3821 40.6291C40.3228 40.3981 40.3338 40.1663 40.3502 39.9157C41.0363 39.7491 41.7116 39.6173 42.4102 39.7483C43.0583 39.8698 43.2249 40.2955 43.2743 40.7037C43.2872 40.811 43.2855 40.9204 43.2858 41.0289C43.287 41.4633 43.2863 41.8977 43.2864 42.3321C43.2864 42.3972 43.2864 42.4624 43.2871 42.5275C43.2891 42.7216 43.3299 42.8958 43.5252 42.9765C43.5252 43.1963 43.5276 43.402 43.523 43.6075C43.5222 43.6468 43.4939 43.6854 43.4499 43.7323ZM42.246 42.697C42.2474 42.5781 42.2528 42.4592 42.2493 42.3405C42.2459 42.2249 42.2697 42.1054 42.2179 41.9767C41.9524 41.9711 41.6973 41.9898 41.4446 42.0414C41.2789 42.0753 41.1794 42.1853 41.1453 42.3456C41.1107 42.5085 41.1115 42.675 41.244 42.7988C41.2951 42.8465 41.3747 42.8844 41.4435 42.8885C41.7133 42.9045 41.981 42.8884 42.246 42.697Z" fill="#1E4381"/>
<path d="M37.7246 40.4392C37.9142 40.8584 37.9681 41.2722 37.9036 41.7027C37.8828 41.8419 37.8684 41.982 37.8484 42.1442C37.7635 42.1527 37.6805 42.1679 37.5975 42.1682C37.0444 42.1703 36.4912 42.1691 35.938 42.1696C35.831 42.1697 35.724 42.1729 35.6174 42.1747C35.6195 42.575 35.7308 42.7287 36.0663 42.7977C36.1716 42.8193 36.2818 42.8283 36.3893 42.8257C36.7469 42.8171 37.1043 42.8011 37.4617 42.787C37.5579 42.7832 37.6539 42.776 37.7617 42.7696C37.8333 43.0266 37.7896 43.2722 37.8007 43.5279C37.0815 43.6991 36.3821 43.8314 35.6616 43.6829C35.1472 43.577 34.8157 43.2693 34.6661 42.7636C34.5183 42.264 34.5211 41.7556 34.5809 41.2452C34.5985 41.0951 34.6336 40.9454 34.6762 40.8C34.851 40.2026 35.2357 39.8373 35.8581 39.7315C36.2177 39.6705 36.5716 39.6845 36.9203 39.7854C37.2692 39.8864 37.5369 40.0958 37.7246 40.4392ZM36.8121 40.8052C36.7202 40.6334 36.5589 40.5757 36.3825 40.5542C36.1971 40.5316 36.0113 40.5451 35.8519 40.6526C35.7833 40.6989 35.7194 40.7695 35.6838 40.8436C35.609 40.9998 35.5594 41.1663 35.6066 41.3432C35.9065 41.4024 36.6816 41.3937 36.8875 41.3282C36.9169 41.1657 36.892 41.008 36.8121 40.8052Z" fill="#1E4381"/>
<path d="M10.3818 42.6213C10.221 42.0732 10.2133 41.5439 10.3292 41.0153C10.3683 40.837 10.4368 40.6601 10.5217 40.4982C10.7882 39.9901 11.2395 39.7613 11.7899 39.7062C12.0389 39.6813 12.2874 39.6941 12.5343 39.7507C13.0223 39.8623 13.3721 40.1402 13.5873 40.5929C13.7599 40.9559 13.8016 41.3441 13.8033 41.7373C13.8045 42.0204 13.773 42.3023 13.6923 42.5758C13.484 43.2816 12.9488 43.7043 12.2125 43.7389C11.9852 43.7496 11.7591 43.7452 11.5327 43.6951C11.0286 43.5834 10.6775 43.2915 10.4608 42.8283C10.4332 42.7693 10.4123 42.7072 10.3818 42.6213ZM12.4133 42.754C12.5533 42.6556 12.6342 42.5174 12.6736 42.3544C12.7745 41.9364 12.7748 41.5167 12.6774 41.0985C12.6581 41.0154 12.6231 40.9324 12.5786 40.8597C12.4895 40.714 12.3568 40.6215 12.1843 40.6037C12.0882 40.5937 11.9896 40.5924 11.8933 40.6008C11.6946 40.6184 11.5484 40.726 11.457 40.8993C11.4122 40.9843 11.3821 41.0796 11.3597 41.1736C11.296 41.4399 11.285 41.7123 11.316 41.9824C11.3357 42.153 11.3742 42.3258 11.4342 42.4865C11.5113 42.6929 11.6727 42.8132 11.8972 42.8474C12.0637 42.8728 12.2195 42.852 12.4133 42.754Z" fill="#1E4381"/>
<path d="M56.1404 43.5254C55.7866 43.315 55.5724 43.0197 55.4583 42.6571C55.2609 42.0293 55.2563 41.3942 55.4627 40.7685C55.617 40.3009 55.9215 39.9604 56.4007 39.8036C56.857 39.6543 57.3163 39.6544 57.7734 39.8008C58.1658 39.9264 58.4521 40.1826 58.6268 40.5522C58.705 40.717 58.763 40.896 58.7993 41.0749C58.8975 41.5595 58.8914 42.0475 58.7658 42.5265C58.5682 43.2804 58.0134 43.7119 57.2326 43.7423C56.8586 43.7569 56.4975 43.7157 56.1404 43.5254ZM57.6947 40.965C57.6808 40.9357 57.6691 40.9048 57.6518 40.8775C57.4748 40.5972 57.2064 40.5554 56.9117 40.6074C56.646 40.6544 56.5042 40.8431 56.4421 41.0896C56.3342 41.5174 56.3334 41.9498 56.4508 42.3753C56.5405 42.6998 56.7693 42.8591 57.0986 42.8557C57.4173 42.8524 57.6261 42.7012 57.7254 42.3915C57.7584 42.289 57.7852 42.1814 57.793 42.0746C57.8186 41.7173 57.8343 41.3595 57.6947 40.965Z" fill="#1E4381"/>
<path d="M6.84564 39.7896C6.972 39.7896 7.06901 39.7896 7.17288 39.7896C7.21178 39.8475 7.24644 39.899 7.28757 39.9602C7.38363 39.9171 7.48036 39.8704 7.57954 39.8297C7.93111 39.6854 8.29055 39.6534 8.66138 39.7488C8.97656 39.8299 9.20088 40.0164 9.33717 40.3101C9.45288 40.5591 9.51059 40.824 9.53018 41.0963C9.54262 41.2695 9.54508 41.4436 9.54564 41.6174C9.54748 42.1823 9.54636 42.7472 9.54642 43.3121C9.54642 43.409 9.54642 43.5058 9.54642 43.6067C9.36715 43.6936 9.19267 43.6514 9.02495 43.6546C8.86555 43.6577 8.70285 43.6777 8.52676 43.6309C8.52028 43.5498 8.50962 43.4768 8.50945 43.4038C8.508 42.8388 8.50962 42.2739 8.50795 41.709C8.5075 41.557 8.50644 41.4044 8.49198 41.2534C8.48171 41.1465 8.45704 41.0389 8.42333 40.9368C8.3717 40.7805 8.25723 40.6919 8.09487 40.6551C7.88601 40.6078 7.68514 40.6504 7.48404 40.6943C7.41198 40.7101 7.34328 40.7409 7.26011 40.7692C7.23416 41.0156 7.25029 41.2535 7.24744 41.4904C7.24449 41.7293 7.24677 41.9684 7.24677 42.2074C7.24677 42.4355 7.24677 42.6637 7.24677 42.8918C7.24677 43.1299 7.24677 43.3681 7.24677 43.6074C7.06577 43.6932 6.89063 43.6518 6.72162 43.6546C6.56205 43.6573 6.39907 43.6789 6.24156 43.6343C6.22863 43.5925 6.21137 43.5627 6.21133 43.5328C6.20991 42.3269 6.20987 41.1211 6.211 39.9153C6.21102 39.8849 6.22605 39.8544 6.23667 39.8142C6.42815 39.7649 6.62361 39.8 6.84564 39.7896Z" fill="#1E4381"/>
<path d="M63.7134 43.2322C63.5454 42.9953 63.4679 42.7458 63.4221 42.4884C63.3317 41.9809 63.3311 41.4708 63.4215 40.9631C63.4461 40.8249 63.4885 40.6885 63.5354 40.5559C63.6861 40.1341 63.9858 39.8709 64.4173 39.7674C64.5847 39.7273 64.7594 39.7074 64.9319 39.6993C65.3577 39.6793 65.7674 39.7831 66.1821 39.8591C66.2362 40.0043 66.2067 40.1349 66.2067 40.2621C66.2072 40.3901 66.1955 40.5181 66.1888 40.6613C66.1179 40.6669 66.066 40.6766 66.0152 40.674C65.8416 40.665 65.6686 40.6456 65.4956 40.6419C65.3337 40.6385 65.1696 40.6369 65.0094 40.6576C64.6712 40.7014 64.5077 40.8611 64.4552 41.1977C64.4011 41.5433 64.4022 41.8921 64.4552 42.2378C64.5049 42.5636 64.6534 42.7211 64.9743 42.7782C65.1322 42.8062 65.2969 42.8052 65.4582 42.8019C65.6424 42.798 65.826 42.7753 66.0096 42.7645C66.0615 42.7615 66.1134 42.7716 66.1815 42.7769C66.1899 42.8524 66.2016 42.9147 66.2022 42.9773C66.2044 43.1712 66.2033 43.3652 66.2033 43.5762C65.6759 43.7015 65.1546 43.7864 64.6221 43.7264C64.2677 43.6863 63.9523 43.5491 63.7134 43.2322Z" fill="#1E4381"/>
<path d="M21.531 43.6138C21.195 43.6581 20.8835 43.6563 20.5585 43.6282C20.5507 43.5528 20.5396 43.4906 20.5384 43.4281C20.5033 41.6841 20.521 38.6071 20.5698 38.2665C20.7218 38.2276 20.8836 38.2521 21.0427 38.2481C21.2045 38.2439 21.3665 38.2472 21.5384 38.2472C21.5529 38.3157 21.573 38.3664 21.5731 38.4172C21.5748 40.1011 21.5747 41.785 21.5738 43.4689C21.5738 43.5115 21.5615 43.5541 21.531 43.6138Z" fill="#1E4381"/>
<path d="M52.6538 41.1941C52.6538 40.7172 52.6538 40.2728 52.6538 39.8342C52.909 39.7782 53.3316 39.7737 53.6595 39.8215C53.6741 39.9187 53.6896 40.0219 53.709 40.1505C54.1023 39.998 54.4584 39.7639 54.8984 39.7163C54.933 40.0554 54.9091 40.3782 54.9151 40.7133C54.8382 40.7423 54.7712 40.7743 54.7006 40.7932C54.4392 40.8631 54.1761 40.9266 53.9149 40.9973C53.844 41.0165 53.7777 41.0526 53.6928 41.0877C53.6928 41.5159 53.693 41.9387 53.6928 42.3616C53.6927 42.782 53.6935 43.2025 53.6921 43.6384C53.3354 43.6682 53.0155 43.6627 52.7174 43.6469C52.688 43.6188 52.6785 43.6126 52.6732 43.6039C52.6678 43.5949 52.6638 43.5834 52.6637 43.5729C52.6602 42.7909 52.657 42.0089 52.6538 41.1941Z" fill="#1E4381"/>
<path d="M13.2635 25.993C13.2635 25.8548 13.2635 25.7478 13.2635 25.6281C13.447 25.5616 13.6199 25.5971 13.7878 25.5913C13.9608 25.5853 14.1341 25.5875 14.3073 25.5906C14.4782 25.5938 14.6507 25.5747 14.8165 25.6067C14.8707 25.8562 14.8749 26.9058 14.8257 27.1955C14.5977 27.241 13.7052 27.2512 13.2952 27.211C13.2852 27.1548 13.2657 27.094 13.2651 27.033C13.2621 26.6968 13.2636 26.3605 13.2635 25.993Z" fill="#1E4381"/>
<path d="M69.331 25.5908C69.5225 25.5989 69.6843 25.5716 69.8378 25.6091C69.8819 25.8673 69.8925 26.6786 69.8596 27.1947C69.8155 27.2058 69.7658 27.2285 69.7167 27.2289C69.3053 27.2319 68.894 27.2314 68.4826 27.2303C68.4307 27.2301 68.3794 27.22 68.3325 27.215C68.289 26.9548 68.2784 26.1064 68.3124 25.6266C68.3671 25.6154 68.4268 25.5936 68.4871 25.5927C68.7578 25.5888 69.0285 25.5909 69.331 25.5908Z" fill="#1E4381"/>
<path d="M4.3501 27.0647C4.35169 26.6109 4.35369 26.1872 4.35741 25.7635C4.35758 25.7439 4.37317 25.7245 4.39075 25.6838C4.76606 25.642 5.15248 25.6793 5.54944 25.6628C5.63001 25.9316 5.58363 26.1913 5.58959 26.4465C5.59537 26.6943 5.60366 26.9436 5.5801 27.2045C5.5004 27.2125 5.4383 27.2236 5.37614 27.2239C5.08331 27.2256 4.79047 27.2233 4.49764 27.2245C4.4074 27.2249 4.3532 27.1909 4.3501 27.0647Z" fill="#1E4381"/>
<path d="M3.46903 27.2244C3.17988 27.2228 2.92218 27.2211 2.67026 27.2195C2.6168 26.9706 2.60549 26.1124 2.64573 25.714C2.8515 25.6535 3.48808 25.6444 3.82525 25.6971C3.87426 25.9268 3.8845 26.7898 3.84139 27.1913C3.73664 27.2519 3.61507 27.2124 3.46903 27.2244Z" fill="#1E4381"/>
<path d="M50.1108 35.0434C50.1108 34.6324 50.1108 34.2525 50.1108 33.8654C50.3227 33.7892 50.5288 33.8301 50.7301 33.8252C50.9229 33.8205 51.1173 33.8105 51.305 33.8348C51.3625 34.0766 51.3694 34.9552 51.32 35.2643C51.0975 35.3155 50.5591 35.3246 50.1415 35.2816C50.1319 35.2163 50.1214 35.1454 50.1108 35.0434Z" fill="#1E4381"/>
<path d="M90.1686 42.2204C89.6774 42.1279 89.1728 42.1452 88.6655 42.2208C88.507 42.2444 88.3423 42.2245 88.1782 42.2126C88.6783 42.0916 89.1756 41.9585 89.6975 41.9739C89.8722 41.9791 90.0419 42.0067 90.2216 42.0887C90.1741 42.1019 90.1094 42.098 89.9966 42.0796C89.6986 42.0223 89.4491 42.0229 89.2007 42.0859C89.4575 42.0985 89.7142 42.111 89.9715 42.1236C90.0329 42.1507 90.0943 42.1777 90.1686 42.2204Z" fill="#008CCA"/>
</g>
<defs>
<clipPath id="clip0_169_1364">
<rect width="94.3256" height="48" fill="white" transform="translate(0.674316)"/>
</clipPath>
</defs>
</svg>
