<svg width="85" height="24" viewBox="0 0 85 24" fill="none" xmlns="http://www.w3.org/2000/svg">
<path opacity="0.946" fill-rule="evenodd" clip-rule="evenodd" d="M0.886283 0.391622C4.20286 0.356989 7.51871 0.391622 10.8338 0.495314C11.3588 1.80121 11.6697 3.1492 11.7664 4.53929C7.9559 5.70665 4.32919 7.29665 0.886283 9.3091C0.912084 7.0845 0.877537 4.80328 0.782663 2.46545C0.710957 2.10917 0.607337 1.76346 0.471802 1.42854C0.543445 1.18051 0.647065 1.18051 0.782663 1.42854C0.884936 1.08967 0.919483 0.743966 0.886283 0.391622Z" fill="#1E4381"/>
<path opacity="0.902" fill-rule="evenodd" clip-rule="evenodd" d="M13.1129 0.3915C16.7749 0.356867 20.436 0.3915 24.0967 0.495192C24.1234 1.31539 24.1234 2.17956 24.0967 3.08748C20.7319 2.99561 17.4161 3.34132 14.1491 4.1244C13.7004 2.91992 13.355 1.67562 13.1129 0.3915Z" fill="#1E4381"/>
<path opacity="0.965" fill-rule="evenodd" clip-rule="evenodd" d="M14.3571 6.19821C17.549 5.42944 20.7958 5.08373 24.0974 5.16129C24.0974 9.72372 24.0974 14.2862 24.0974 18.8486C20.823 18.9975 17.6107 18.6518 14.4607 17.8117C14.8907 13.9521 14.8563 10.081 14.3571 6.19821Z" fill="#1E4381"/>
<path opacity="0.934" fill-rule="evenodd" clip-rule="evenodd" d="M11.4533 6.82027C11.8576 6.76365 12.1685 6.90177 12.3859 7.23503C12.6648 9.78771 12.7338 12.3454 12.5931 14.9082C12.5784 15.7765 12.4402 16.6061 12.1786 17.3968C8.20066 16.1859 4.47033 14.4578 0.987648 12.2122C0.859739 12.0154 0.894265 11.8427 1.09127 11.6938C4.36992 9.67282 7.82393 8.04839 11.4533 6.82027Z" fill="#1E4381"/>
<path opacity="0.93" fill-rule="evenodd" clip-rule="evenodd" d="M0.679077 14.908C0.691512 14.7954 0.760585 14.7263 0.886318 14.7006C4.46358 16.7226 8.19391 18.3816 12.0773 19.6778C11.7689 20.8433 11.4926 22.0185 11.2483 23.2033C11.1825 23.4412 11.0443 23.6141 10.8339 23.7218C7.51874 23.8255 4.20289 23.8601 0.886318 23.8255C0.954562 20.8163 0.885468 17.8439 0.679077 14.908Z" fill="#1E4381"/>
<path opacity="0.908" fill-rule="evenodd" clip-rule="evenodd" d="M14.1499 20.0923C17.4413 20.6769 20.7572 21.0224 24.0975 21.1292C24.0975 22.0278 24.0975 22.9266 24.0975 23.8252C20.574 23.5908 17.0509 23.5562 13.5282 23.7215C13.5286 22.5056 13.7359 21.2959 14.1499 20.0923Z" fill="#1E4381"/>
<path opacity="0.931" fill-rule="evenodd" clip-rule="evenodd" d="M31.1278 5.42243C33.7693 5.09456 36.118 5.75134 38.174 7.39257C38.3384 7.61758 38.4766 7.8596 38.5885 8.11841C37.8248 9.05557 36.9612 9.88511 35.998 10.607C34.6824 9.2669 33.1281 8.88676 31.3351 9.4664C30.4719 10.3689 30.5411 11.1985 31.5423 11.955C33.577 12.5585 35.5112 13.388 37.3451 14.4436C39.5205 16.6182 39.7623 19.0031 38.0704 21.5983C35.9994 23.6101 33.5472 24.2667 30.7134 23.5685C29.032 23.2288 27.6159 22.4339 26.4649 21.1835C26.1953 20.7968 26.1261 20.382 26.2577 19.9392C26.8891 19.2377 27.5799 18.6155 28.3301 18.0728C29.3412 19.0823 30.5501 19.7391 31.9568 20.0429C33.0718 20.2391 34.0734 19.9973 34.9618 19.3171C35.3868 18.5183 35.2832 17.7924 34.6509 17.1396C32.6643 16.4218 30.7301 15.5923 28.8482 14.651C26.7026 12.9013 26.1845 10.7238 27.2939 8.11841C28.2422 6.72977 29.5201 5.83118 31.1278 5.42243Z" fill="#1E4381"/>
<path opacity="0.933" fill-rule="evenodd" clip-rule="evenodd" d="M48.1366 5.53388C55.1853 5.39805 58.5011 8.8545 58.0842 15.903C53.8704 16.0414 49.6563 16.1795 45.4425 16.3178C46.5475 19.3593 48.6889 20.5692 51.867 19.947C52.8785 19.7174 53.7765 19.268 54.5611 18.599C55.3637 19.3682 56.0545 20.2324 56.6335 21.1913C55.5285 22.4375 54.1468 23.267 52.4887 23.6799C46.8254 24.4935 43.1297 22.1776 41.4013 16.7326C40.644 11.1197 42.8891 7.38685 48.1366 5.53388ZM49.3801 9.0594C52.0603 9.08262 53.6146 10.396 54.043 12.9997C51.2106 12.7232 48.3785 12.7232 45.5461 12.9997C45.9444 10.8381 47.2225 9.52476 49.3801 9.0594Z" fill="#1E4381"/>
<path opacity="0.962" fill-rule="evenodd" clip-rule="evenodd" d="M60.4076 0.611059C61.6355 0.547185 62.8446 0.616243 64.0343 0.818442C64.2061 8.47192 64.1717 16.1105 63.9307 23.7343C62.7047 23.9016 61.4956 23.8672 60.304 23.6306C60.1328 15.9427 60.1672 8.26951 60.4076 0.611059Z" fill="#1E4381"/>
<path opacity="0.937" fill-rule="evenodd" clip-rule="evenodd" d="M74.6044 5.38127C77.0503 5.37691 78.8808 6.41383 80.0963 8.49202C80.2851 7.57932 80.596 6.71516 81.0289 5.89973C81.9269 5.7614 82.825 5.7614 83.723 5.89973C83.8266 6.00342 83.9303 6.10711 84.0339 6.2108C84.2046 11.8881 84.1702 17.5565 83.9303 23.2162C82.9009 23.4572 81.8647 23.4918 80.8217 23.3199C80.5498 22.71 80.2389 22.1225 79.8891 21.5572C76.5015 24.4914 73.0128 24.5951 69.4234 21.8682C66.7554 19.2509 65.7538 16.1057 66.4184 12.4323C67.6681 8.30994 70.3968 5.95945 74.6044 5.38127ZM73.7755 9.52893C78.7254 9.47336 80.6942 11.8927 79.6818 16.7873C78.1528 19.6864 75.8388 20.5505 72.7393 19.3796C71.1128 18.2751 70.2839 16.7197 70.2524 14.7135C70.3568 12.2143 71.5311 10.4862 73.7755 9.52893Z" fill="#1E4381"/>
<path opacity="0.01" fill-rule="evenodd" clip-rule="evenodd" d="M14.2814 6.15949C14.1427 5.88324 14.1427 5.88324 14.2814 6.15949V6.15949Z" fill="#1E4381"/>
</svg>
