<svg width="96" height="48" viewBox="0 0 96 48" fill="none" xmlns="http://www.w3.org/2000/svg">
<g clip-path="url(#clip0_169_955)">
<path d="M82.0811 43.1735C81.9421 43.7029 81.7992 44.2046 81.6826 44.7125C81.5659 45.2212 81.4895 45.7385 81.4588 46.2603C81.4281 46.7765 81.4102 47.2935 81.3851 47.8464C81.3276 47.7935 81.2869 47.7641 81.2562 47.7264C80.535 46.8403 79.8524 45.9271 79.2982 44.924C78.8121 44.0432 78.4437 43.1192 78.2684 42.1224C78.1239 41.2994 78.1306 40.479 78.2601 39.6554C78.4934 38.1653 78.9577 36.7415 79.4874 35.3365C79.6789 34.8282 79.8843 34.325 80.079 33.8179C80.2504 33.3712 80.4028 32.9205 80.4597 32.4396C80.5211 31.9157 80.429 31.4223 80.2203 30.9456C80.1633 30.8164 80.0947 30.6925 80.0305 30.5666C79.2642 29.0635 78.6351 27.5016 78.0653 25.9157C77.7181 24.9485 77.535 23.9442 77.511 22.9138C77.4748 21.3669 77.8342 19.9156 78.5838 18.5657C79.0057 17.8058 79.4327 17.0473 79.8949 16.3114C80.8476 14.7926 81.8216 13.287 82.7944 11.7807C83.5027 10.6838 84.1618 9.56028 84.7027 8.36994C85.2497 7.16782 85.6643 5.92289 85.8882 4.61942C86.0411 3.72811 86.1181 2.82947 86.0718 1.9234C86.0679 1.84759 86.0617 1.76961 86.0746 1.69566C86.127 1.38764 86.1862 1.08078 86.2459 0.759277C86.3648 0.818022 86.3899 0.919089 86.4363 1.0001C87.106 2.16951 87.7752 3.33927 88.4411 4.5108C90.0681 7.37355 91.6967 10.2355 93.379 13.0661C93.965 14.0522 94.4204 15.095 94.7017 16.2102C95.1739 18.0845 95.088 19.9383 94.488 21.7712C94.2095 22.6216 93.8333 23.4278 93.3829 24.1997C92.4245 25.8431 91.4193 27.4575 90.3834 29.0526C88.7146 31.623 87.0363 34.1875 85.3652 36.7566C84.749 37.7041 84.1574 38.6671 83.6171 39.6609C83.0087 40.7802 82.4813 41.9347 82.0811 43.1735ZM90.4934 15.9162C90.6603 14.8983 90.6379 13.8778 90.5168 12.8589C90.4057 11.929 90.1981 11.0176 89.9442 10.1169C89.9224 10.0405 89.8883 9.9675 89.8554 9.88032C89.8336 9.91861 89.8203 9.93619 89.813 9.956C89.7979 9.99669 89.7829 10.0379 89.7728 10.0801C89.3576 11.8485 88.6716 13.512 87.835 15.1176C87.2216 16.2949 86.5323 17.4273 85.8162 18.5439C85.7525 18.6433 85.6906 18.7438 85.6359 18.8312C85.7933 19.1943 87.3829 21.9318 87.5497 22.1257C87.5832 22.0816 87.6184 22.0434 87.6446 21.9996C88.2536 20.9835 88.8759 19.9749 89.4658 18.9479C89.9961 18.0256 90.3276 17.0271 90.4934 15.9162ZM85.997 23.7757C85.8134 23.4557 85.6297 23.1355 85.4456 22.8157C85.2558 22.4864 85.0683 22.1558 84.874 21.8291C84.6893 21.5173 84.5319 21.188 84.3042 20.8751C84.2433 20.9576 84.1953 21.0153 84.1546 21.078C83.6444 21.8726 83.1287 22.6639 82.6286 23.4651C82.416 23.8052 82.2256 24.1603 82.0465 24.5192C81.576 25.4602 81.2718 26.4542 81.1758 27.5037C81.0658 28.7008 81.2389 29.8655 81.6296 30.9992C81.6424 31.0362 81.6742 31.0665 81.7105 31.1194C82.056 30.6624 82.416 30.2418 82.714 29.7749C83.842 28.0091 84.9678 26.2419 86.0941 24.4748C86.146 24.3935 86.1923 24.3087 86.2454 24.2186C86.1689 24.0805 86.0958 23.9485 85.997 23.7757Z" fill="white"/>
<path d="M34.6458 33.2765C32.3338 33.2765 30.0543 33.2741 27.7748 33.278C27.1056 33.2791 26.456 33.1796 25.8318 32.9373C25.6912 32.8827 25.5695 32.8785 25.4273 32.9331C24.7924 33.177 24.1333 33.2836 23.4525 33.2785C22.4539 33.2709 21.4552 33.2762 20.4566 33.2768C20.3393 33.2768 20.222 33.2813 20.0858 33.2842C20.0741 33.4002 20.0619 33.4947 20.0556 33.5896C20.0332 33.9276 19.9696 34.2574 19.8635 34.579C19.7881 34.8077 19.685 35.0226 19.5418 35.2165C19.28 35.5707 18.9279 35.7628 18.4891 35.7793C18.2097 35.7898 17.9287 35.7955 17.655 35.7497C17.6023 35.4986 17.5968 34.5346 17.6459 34.2006C17.7137 34.1914 17.7865 34.1819 17.859 34.1714C18.0499 34.1437 18.1746 34.0327 18.2358 33.8541C18.2672 33.7626 18.2908 33.6659 18.2997 33.5698C18.3127 33.4293 18.3124 33.2873 18.3124 33.146C18.3132 31.6121 18.3127 30.0783 18.3134 28.5444C18.3135 28.4273 18.32 28.3101 18.3239 28.1786C18.5243 28.1363 18.7078 28.1597 18.8891 28.1557C19.0844 28.1516 19.2798 28.1529 19.4752 28.1554C19.6577 28.1577 19.8414 28.1437 20.0452 28.1696C20.0528 28.2755 20.0652 28.3693 20.0653 28.4632C20.0668 29.4096 20.0659 30.356 20.0667 31.3025C20.0668 31.4093 20.0731 31.5162 20.0772 31.6434C20.5105 31.6865 20.9308 31.6581 21.3497 31.6634C21.7622 31.6686 22.1747 31.6645 22.5872 31.6645C23.0082 31.6645 23.4292 31.6645 23.8428 31.6645C23.8806 31.5757 23.8225 31.5472 23.7867 31.5143C23.6906 31.4263 23.5884 31.345 23.4918 31.2575C23.3709 31.1484 23.2542 31.0345 23.1335 30.925C22.8069 30.6284 22.6612 30.2595 22.674 29.8192C22.6828 29.5159 22.6757 29.2121 22.6757 28.9103C24.4323 27.7609 26.7479 27.7614 28.5949 28.9068C28.5949 29.0317 28.5974 29.1611 28.5943 29.2903C28.5894 29.4969 28.5747 29.7035 28.5751 29.91C28.5759 30.2907 28.4322 30.6101 28.1699 30.8758C28.0021 31.0456 27.8204 31.2016 27.6443 31.3631C27.5575 31.4426 27.4691 31.5204 27.3875 31.5935C27.3997 31.6242 27.4016 31.636 27.4083 31.6439C27.4141 31.6509 27.4251 31.6573 27.4339 31.6573C28.4541 31.6598 29.4742 31.662 30.4943 31.6627C30.5361 31.6627 30.5778 31.6486 30.628 31.6395C30.6202 31.557 30.6199 31.4805 30.6048 31.4071C30.4999 30.8988 30.5061 30.3892 30.6112 29.8841C30.6974 29.4698 30.8153 29.0622 30.9074 28.6489C30.9407 28.4993 31.027 28.4334 31.161 28.3863C31.5007 28.2668 31.8506 28.1911 32.2057 28.1478C32.7997 28.0753 33.3956 28.0557 33.9917 28.1364C34.3598 28.1863 34.7169 28.2666 35.0386 28.4648C35.429 28.7053 35.677 29.0409 35.7608 29.4995C35.8315 29.8863 35.8605 30.2755 35.8681 30.6673C35.8713 30.8304 35.8724 30.9937 35.8685 31.1567C35.865 31.2953 35.9147 31.411 35.9998 31.5155C36.0796 31.6134 36.1765 31.6675 36.3083 31.6657C36.6231 31.6613 36.9379 31.6644 37.2527 31.6645C37.5445 31.6645 37.8364 31.6645 38.1299 31.6645C38.2081 31.5416 38.176 31.419 38.1762 31.3048C38.1789 29.8145 38.178 28.3241 38.178 26.8338C38.178 26.7032 38.1766 26.5727 38.179 26.4422C38.18 26.3903 38.1896 26.3386 38.1947 26.2927C38.4649 26.243 39.5853 26.2397 39.8903 26.284C39.898 26.2913 39.9076 26.2975 39.9128 26.3063C39.9181 26.3154 39.9213 26.3271 39.9213 26.3376C39.9247 28.5891 39.9278 30.8407 39.93 33.0922C39.93 33.135 39.9204 33.1779 39.9133 33.2205C39.9118 33.2295 39.9014 33.2371 39.8805 33.2645C39.8342 33.2688 39.7715 33.2797 39.7089 33.2797C38.6017 33.2808 37.4945 33.2781 36.3874 33.2829C36.2051 33.2838 36.0466 33.2418 35.9124 33.1181C35.8773 33.1725 35.8485 33.2168 35.8099 33.2765C35.4363 33.2765 35.0574 33.2765 34.6458 33.2765ZM32.2428 31.143C32.288 31.3091 32.2796 31.4895 32.3847 31.6652C32.5697 31.6652 32.7639 31.6652 32.958 31.6652C33.1426 31.6652 33.3271 31.6682 33.5116 31.6643C33.7031 31.6602 33.897 31.6837 34.0947 31.6458C34.1023 31.5839 34.1118 31.5424 34.112 31.5007C34.113 31.1853 34.1159 30.8698 34.1102 30.5543C34.108 30.4355 34.0837 30.3172 34.0715 30.1984C34.0557 30.0459 33.9706 29.9375 33.8526 29.851C33.7366 29.766 33.6046 29.7246 33.4632 29.6975C33.1372 29.6354 32.8141 29.6668 32.491 29.711C32.4308 29.7193 32.3737 29.7511 32.3254 29.7684C32.2189 30.2532 32.1999 30.5452 32.2428 31.143ZM24.4859 30.0447C24.763 30.5041 25.1623 30.8211 25.628 31.0508C26.2617 30.7203 26.7169 30.2823 26.8754 29.8573C26.452 29.5759 24.7886 29.5702 24.4116 29.858C24.4279 29.9027 24.4458 29.9517 24.4859 30.0447Z" fill="white"/>
<path d="M57.9014 33.2807C55.8063 33.2807 53.7436 33.2813 51.6809 33.2804C51.0084 33.28 50.3355 33.2985 49.6648 33.221C49.5149 33.2037 49.3603 33.2053 49.21 33.2197C48.8121 33.2578 48.5571 33.5079 48.4941 33.9015C48.4154 34.3926 48.7079 34.8307 49.1695 34.8822C49.2445 34.8906 49.3183 34.9101 49.3894 34.9239C49.4844 35.2015 49.629 36.1621 49.6166 36.4461C49.5595 36.4585 49.4989 36.4806 49.4374 36.4833C49.1229 36.4972 48.8097 36.5027 48.4972 36.4378C47.863 36.3061 47.3906 35.9592 47.0733 35.3961C46.8089 34.9268 46.7319 34.4143 46.7369 33.8858C46.7393 33.6248 46.7594 33.3641 46.832 33.1107C47.0544 32.3348 47.5579 31.8709 48.3535 31.7272C48.7309 31.659 49.109 31.6623 49.4888 31.7002C49.7359 31.7249 49.9837 31.7415 50.243 31.7627C50.2555 31.6801 50.2726 31.6181 50.2729 31.5559C50.2752 31.1317 50.2784 30.7072 50.2713 30.2831C50.2691 30.1542 50.2447 30.0235 50.2136 29.8979C50.1672 29.7105 50.0376 29.5991 49.8476 29.5743C49.7191 29.5575 49.5881 29.5559 49.4582 29.5558C48.8503 29.5555 48.2423 29.5584 47.6344 29.5588C47.571 29.5588 47.5076 29.5495 47.4491 29.545C47.3811 29.2684 47.3493 28.7487 47.3807 28.4142C47.5389 28.3739 47.7029 28.3211 47.8711 28.2912C48.6737 28.1481 49.481 28.0526 50.2986 28.0736C50.5606 28.0803 50.8168 28.1185 51.0677 28.1946C51.5855 28.3516 51.8972 28.6924 51.9772 29.2317C52.0059 29.4246 52.0261 29.6204 52.0288 29.8153C52.036 30.3265 52.0306 30.838 52.0319 31.3493C52.0322 31.4445 52.0397 31.5397 52.0447 31.6548C52.1379 31.6585 52.2112 31.6634 52.2845 31.6642C55.0194 31.6944 58.7369 31.6792 59.0729 31.634C59.0785 31.5548 59.0841 31.4713 59.0891 31.3876C59.1477 30.407 59.8353 29.5316 60.7663 29.2839C62.4095 28.8467 63.5397 30.1091 63.6458 31.2519C63.658 31.3806 63.6703 31.5093 63.6837 31.6497C63.8657 31.6497 64.0348 31.6497 64.1961 31.6497C64.2145 31.617 64.2329 31.5989 64.2329 31.581C64.2312 31.0917 64.2474 30.6014 64.2201 30.1135C64.1821 29.4376 63.8612 28.9143 63.2802 28.5627C62.9877 28.3857 62.6601 28.305 62.3235 28.2666C61.944 28.2234 61.5639 28.244 61.1872 28.2978C60.6932 28.3682 60.2009 28.4498 59.7081 28.5259C59.6439 28.5357 59.5797 28.5413 59.4954 28.5513C59.4798 28.4874 59.4597 28.4285 59.4525 28.3679C59.4134 28.044 59.376 27.7199 59.3425 27.3955C59.3341 27.3112 59.3414 27.2253 59.3414 27.1317C59.6472 27.0245 59.9559 26.968 60.2618 26.9089C60.7406 26.8165 61.2218 26.7291 61.7057 26.6708C62.3006 26.5991 62.8967 26.6106 63.4845 26.7567C64.5159 27.0131 65.2331 27.6408 65.6472 28.6138C65.8532 29.0972 65.9687 29.6069 65.9844 30.134C65.9961 30.5253 65.9911 30.9172 65.995 31.3088C65.9961 31.4154 66.0022 31.5218 66.0061 31.623C66.2584 31.6739 67.8145 31.6871 68.2951 31.6458C68.371 31.5663 68.3403 31.4639 68.3403 31.371C68.3431 30.4245 68.3419 29.4779 68.3425 28.5313C68.3425 28.425 68.3492 28.3185 68.3525 28.2179C68.5931 28.1593 69.6904 28.1489 70.0711 28.1996C70.0789 28.2554 70.0939 28.3166 70.0939 28.3778C70.0956 29.9337 70.0956 31.4895 70.0945 33.0454C70.0945 33.1095 70.085 33.1736 70.0783 33.2514C70.0108 33.2617 69.9494 33.2762 69.8869 33.2792C69.7892 33.2838 69.6915 33.2807 69.5939 33.2807C65.7075 33.2807 61.8206 33.2807 57.9014 33.2807ZM61.8005 31.6642C61.834 31.6426 61.8938 31.6244 61.8971 31.5988C61.9284 31.3631 61.8765 31.1458 61.7168 30.9645C61.5125 30.7328 61.2022 30.7421 61.0191 30.9896C60.8796 31.1789 60.8299 31.3946 60.8623 31.6206C60.8964 31.6387 60.9148 31.6567 60.9338 31.657C61.2039 31.6612 61.474 31.6631 61.8005 31.6642Z" fill="white"/>
<path d="M6.86753 31.2674C6.86753 31.4072 6.86753 31.5147 6.86753 31.634C6.94974 31.6461 7.01181 31.6631 7.07387 31.6631C8.517 31.6647 9.96012 31.6646 11.4032 31.6634C11.4665 31.6634 11.5299 31.6505 11.6 31.6429C11.6157 31.447 11.5741 31.267 11.5542 31.0852C11.5057 30.6404 11.4966 30.1963 11.5837 29.7539C11.7095 29.1154 12.0707 28.6781 12.6793 28.4447C13.038 28.307 13.4139 28.2433 13.7916 28.2221C14.7352 28.169 15.6787 28.1738 16.6151 28.3308C16.636 28.3343 16.6556 28.3453 16.6921 28.359C16.6997 28.4129 16.716 28.4748 16.7161 28.5368C16.7175 30.0483 16.7173 31.5599 16.7166 33.0714C16.7166 33.1245 16.7085 33.1777 16.7028 33.2476C16.6366 33.2591 16.576 33.2753 16.5147 33.2791C16.4282 33.2844 16.3412 33.2806 16.2544 33.2806C13.6285 33.2806 11.0026 33.2811 8.37679 33.2804C6.93372 33.2801 5.49062 33.2788 4.04754 33.2758C3.61313 33.2749 3.18172 33.2378 2.75207 33.1687C1.94936 33.0395 1.47573 32.5648 1.30053 31.7844C1.18082 31.2512 1.14779 30.7084 1.19775 30.1634C1.21853 29.9367 1.24753 29.7093 1.29371 29.4866C1.43935 28.7842 1.87311 28.3548 2.57055 28.2166C2.93086 28.1452 3.29992 28.1009 3.66687 28.0836C4.57833 28.0408 5.48908 28.089 6.39842 28.1553C6.54738 28.1661 6.69958 28.1752 6.83666 28.228C6.84743 28.2588 6.86072 28.2791 6.86077 28.2995C6.86373 29.2781 6.86557 30.2567 6.86753 31.2674ZM5.10359 29.7722C5.07646 29.7151 5.02553 29.7026 4.96961 29.7025C4.5374 29.7018 4.10517 29.6994 3.673 29.7032C3.58791 29.704 3.50173 29.7241 3.41831 29.7445C3.18665 29.8012 3.04511 29.9517 2.98566 30.181C2.89907 30.5151 2.91284 30.8494 3.01426 31.1753C3.08609 31.4061 3.24252 31.5677 3.49288 31.6096C3.63097 31.6327 3.77047 31.6577 3.90981 31.6609C4.25565 31.6686 4.60177 31.6654 4.94775 31.6636C4.99724 31.6634 5.04664 31.6464 5.11257 31.634C5.11257 31.0207 5.11257 30.4261 5.10359 29.7722ZM13.3282 30.5997C13.3048 31.2844 13.3173 31.4178 13.4263 31.6462C13.8822 31.6883 14.7133 31.6753 14.9579 31.617C14.9592 31.4197 14.9609 31.216 14.9615 31.0121C14.9621 30.8063 14.9667 30.6003 14.9602 30.3948C14.9537 30.1933 14.9927 29.9877 14.9252 29.7847C14.5911 29.7518 14.2678 29.7552 13.9449 29.7786C13.8704 29.784 13.7969 29.8081 13.7241 29.8276C13.566 29.8702 13.4543 29.9715 13.4093 30.1266C13.3706 30.2603 13.3563 30.4012 13.3282 30.5997Z" fill="white"/>
<path d="M90.3444 42.236C90.8238 42.4213 91.0794 42.7939 91.1866 43.2773C91.2408 43.5204 91.2726 43.7693 91.3005 44.0172C91.3914 44.8158 91.4752 45.6152 91.5617 46.4144C91.5628 46.424 91.555 46.4346 91.5511 46.4471C91.4997 46.5084 91.4394 46.5052 91.387 46.4522C91.3267 46.3906 91.277 46.3183 91.2195 46.2534C90.8919 45.8834 90.4834 45.6847 89.9883 45.6898C89.7834 45.6918 89.5781 45.7159 89.3749 45.7446C89.1494 45.7765 88.9278 45.8341 88.7029 45.8636C88.5315 45.8861 88.3563 45.8958 88.1838 45.8872C87.7691 45.8666 87.4281 45.6917 87.2009 45.3381C87.0787 45.1477 86.9738 44.9423 86.8889 44.7326C86.6958 44.2576 86.5887 43.7567 86.5083 43.2528C86.3916 42.5237 86.2962 41.7912 86.1913 41.0603C86.179 40.9746 86.1991 40.9106 86.3157 40.885C86.3615 40.9232 86.4195 40.9683 86.4731 41.0181C86.8326 41.35 87.2612 41.5036 87.7446 41.5231C88.1157 41.5381 88.4791 41.4766 88.8441 41.4251C89.0367 41.3979 89.232 41.3787 89.4262 41.3753C89.8532 41.3677 90.2037 41.5438 90.4878 41.8568C90.5799 41.9581 90.6742 42.06 90.7317 42.2159C90.6101 42.2063 90.5319 42.1472 90.4058 42.0938C90.2043 42.0065 90.0346 41.979 89.8599 41.9738C89.338 41.9583 88.8407 42.0915 88.3407 42.2125C88.5047 42.2243 88.6694 42.2442 88.8279 42.2206C89.3353 42.145 89.8398 42.1278 90.3444 42.236Z" fill="white"/>
<path d="M32.701 39.7536C32.9851 39.8248 33.2443 39.8173 33.5051 39.8009C33.7416 39.7859 33.9788 39.782 34.2357 39.7725C34.2925 40.0471 34.2641 40.3024 34.2567 40.5646C34.0981 40.6464 33.9313 40.5466 33.7597 40.6007C33.7695 40.6448 33.7734 40.6842 33.7871 40.7198C33.9153 41.0514 33.8833 41.3843 33.7791 41.7107C33.6997 41.9593 33.5297 42.1395 33.292 42.2534C33.0532 42.3679 32.8002 42.4234 32.5377 42.4329C32.3432 42.4399 32.1483 42.4342 31.9428 42.4342C31.9206 42.4738 31.892 42.5074 31.8814 42.546C31.8084 42.8143 31.8661 42.9041 32.1444 42.9393C32.2731 42.9556 32.4044 42.9496 32.5343 42.9588C32.8154 42.9785 33.0964 43.0011 33.3773 43.0236C33.4204 43.0271 33.4636 43.0343 33.5058 43.0438C34.0059 43.1564 34.2441 43.4445 34.2645 43.9598C34.2946 44.7194 33.9865 45.1429 33.2433 45.3264C32.6331 45.4771 32.0184 45.4739 31.407 45.319C31.3442 45.3031 31.2818 45.2837 31.2214 45.2604C30.5591 45.0049 30.3732 44.3061 30.8208 43.748C30.9019 43.6468 30.9951 43.5554 31.0974 43.4435C31.056 43.3851 31.0119 43.328 30.9733 43.2673C30.8329 43.047 30.82 42.8193 30.9431 42.5874C31.0035 42.4736 31.0686 42.3625 31.1351 42.2439C31.0994 42.2035 31.0746 42.1689 31.0436 42.1412C30.5768 41.7243 30.5454 40.969 30.7482 40.4752C30.8852 40.1415 31.1511 39.9419 31.4835 39.8291C31.7956 39.7232 32.1186 39.6908 32.4469 39.7183C32.5224 39.7247 32.5973 39.7394 32.701 39.7536ZM32.5257 41.6061C32.6807 41.5515 32.7833 41.444 32.8156 41.2842C32.8503 41.1131 32.8588 40.9388 32.7749 40.7762C32.6639 40.5608 32.4645 40.5278 32.2505 40.5277C32.034 40.5276 31.8373 40.5744 31.7322 40.788C31.6746 40.9052 31.6521 41.0342 31.6699 41.1676C31.7084 41.4566 31.866 41.6188 32.155 41.6442C32.2608 41.6535 32.3693 41.6327 32.5257 41.6061ZM32.0763 43.8205C31.9813 43.8205 31.8864 43.8205 31.7747 43.8205C31.719 43.9359 31.6594 44.0378 31.62 44.1471C31.5785 44.2621 31.6278 44.3643 31.7202 44.4332C31.7789 44.4769 31.8532 44.5067 31.925 44.5243C32.2457 44.603 32.5687 44.5995 32.8884 44.5211C32.9692 44.5012 33.0494 44.4568 33.1162 44.4058C33.2217 44.3252 33.2359 44.2064 33.2115 44.0818C33.1892 43.9673 33.0991 43.9255 33.0029 43.9038C32.9088 43.8826 32.811 43.8763 32.7145 43.8683C32.5208 43.8521 32.3268 43.8393 32.0763 43.8205Z" fill="white"/>
<path d="M15.9509 43.6471C15.6806 43.6471 15.4424 43.6471 15.1917 43.6471C15.164 43.5675 15.1304 43.4999 15.1167 43.4285C14.9003 42.2973 14.686 41.1657 14.4733 40.0338C14.4597 39.9617 14.463 39.8863 14.4581 39.805C14.5142 39.7949 14.5559 39.7812 14.5977 39.7809C14.868 39.7789 15.1383 39.7799 15.4173 39.7799C15.4432 39.8537 15.4737 39.9116 15.4835 39.9727C15.6199 40.8314 15.7532 41.6905 15.8884 42.5494C15.8967 42.6023 15.9079 42.6568 15.9301 42.7049C15.9404 42.7274 15.9796 42.7472 16.0067 42.7486C16.0341 42.7499 16.0762 42.7345 16.0881 42.7131C16.1137 42.6669 16.1294 42.6132 16.14 42.5607C16.2951 41.7939 16.4485 41.0268 16.6028 40.2598C16.6283 40.1331 16.6566 40.0069 16.6819 39.8887C16.9645 39.8435 17.4739 39.8435 17.7544 39.8886C17.8234 40.2203 17.8954 40.5591 17.9641 40.8986C18.0763 41.4524 18.1858 42.0067 18.2979 42.5605C18.3085 42.6129 18.3234 42.6666 18.3488 42.7129C18.3605 42.7342 18.4027 42.7498 18.4301 42.7484C18.4572 42.7471 18.4978 42.7268 18.5065 42.7045C18.5298 42.6449 18.5435 42.5805 18.5535 42.5168C18.6888 41.658 18.8225 40.7989 18.9579 39.9401C18.9644 39.8987 18.9827 39.8592 18.9937 39.8244C19.2292 39.7668 19.6731 39.7618 19.974 39.8127C19.9764 39.8521 19.9879 39.8958 19.9802 39.9357C19.7435 41.161 19.5229 42.3896 19.2795 43.6043C19.0192 43.6571 17.9832 43.6637 17.6516 43.6155C17.5179 42.9109 17.3826 42.198 17.2385 41.4382C17.1599 41.5822 17.1452 41.6936 17.1251 41.8033C17.0313 42.3163 16.9383 42.8295 16.8427 43.3422C16.825 43.4369 16.7962 43.5295 16.7677 43.6422C16.5011 43.6439 16.242 43.6455 15.9509 43.6471Z" fill="white"/>
<path d="M5.03676 41.8773C5.29809 42.4632 5.54799 43.0271 5.80043 43.5968C5.757 43.6229 5.73166 43.6513 5.70609 43.6516C5.34913 43.6545 4.99215 43.6535 4.62038 43.6535C4.57845 43.5748 4.53262 43.5028 4.49999 43.4252C4.29378 42.935 4.09105 42.4434 3.88584 41.9527C3.83604 41.8337 3.78126 41.7167 3.73206 41.6061C3.44719 41.5669 3.29404 41.5797 3.03777 41.6654C3.03154 41.7424 3.01915 41.827 3.01881 41.9115C3.01687 42.3897 3.01921 42.8678 3.01664 43.346C3.01613 43.441 3.04174 43.5425 2.95617 43.6522C2.64253 43.6541 2.31157 43.6745 1.97158 43.6366C1.96181 43.5811 1.94832 43.5402 1.9483 43.4993C1.94724 41.8156 1.9474 40.1319 1.9474 38.4441C2.1249 38.3607 2.2997 38.4028 2.46836 38.3989C2.63893 38.3949 2.81162 38.3814 2.98925 38.4155C3.04461 38.6727 3.01038 38.9225 3.01653 39.1699C3.02247 39.4089 3.01782 39.6481 3.01782 39.8871C3.01782 40.1359 3.01782 40.3846 3.01782 40.6455C3.26376 40.7037 3.48234 40.647 3.72475 40.6055C4.02281 39.8925 4.27743 39.1551 4.57258 38.4397C4.80208 38.3858 5.24659 38.3758 5.76087 38.4133C5.74085 38.4859 5.72972 38.5578 5.70183 38.6226C5.39689 39.3303 5.08933 40.0369 4.78252 40.7438C4.7609 40.7936 4.74352 40.8457 4.71731 40.893C4.66474 40.9877 4.67541 41.0745 4.72097 41.171C4.82753 41.3967 4.92449 41.6269 5.03676 41.8773Z" fill="white"/>
<path d="M42.1389 26.2538C42.4938 26.2587 42.8172 26.2431 43.1382 26.2637C43.1544 26.3157 43.1717 26.3455 43.1717 26.3753C43.173 28.6584 43.1729 30.9415 43.1729 33.2283C42.9735 33.3188 42.7766 33.2651 42.586 33.2745C42.402 33.2835 42.2171 33.2796 42.0327 33.2756C41.8401 33.2714 41.6454 33.2951 41.4459 33.2566C41.4359 33.2019 41.4219 33.1611 41.4219 33.1202C41.4208 30.8481 41.4209 28.5759 41.4209 26.2895C41.4963 26.2759 41.5571 26.2572 41.6183 26.2554C41.781 26.251 41.9438 26.2538 42.1389 26.2538Z" fill="white"/>
<path d="M48.6308 41.5206C48.6325 40.9551 48.634 40.4223 48.6369 39.8895C48.637 39.8699 48.6516 39.8504 48.6682 39.8088C48.8139 39.7697 48.9761 39.7954 49.1351 39.7909C49.2866 39.7866 49.4383 39.79 49.5915 39.79C49.6342 39.845 49.6726 39.8943 49.7156 39.9498C49.8054 39.9081 49.8926 39.8662 49.9809 39.8268C50.3556 39.6599 50.7404 39.6534 51.125 39.7768C51.4642 39.8857 51.7088 40.1158 51.8359 40.4473C51.9169 40.6586 51.9831 40.8824 52.0102 41.1062C52.0689 41.5927 52.0786 42.0825 51.9781 42.5672C51.9583 42.6627 51.9346 42.7582 51.9032 42.8503C51.7541 43.2862 51.4518 43.557 51.008 43.67C50.6452 43.7624 50.277 43.7556 49.908 43.7249C49.8444 43.7196 49.7812 43.7095 49.7052 43.7C49.6403 43.9647 49.6803 44.225 49.6727 44.4823C49.6654 44.7305 49.6754 44.9793 49.6669 45.2289C49.4912 45.3021 49.3272 45.2654 49.168 45.2713C49.0059 45.2774 48.8434 45.2727 48.6915 45.2727C48.5969 45.1644 48.6327 45.0507 48.6324 44.9465C48.6298 43.8154 48.6308 42.6843 48.6308 41.5206ZM50.5059 40.6587C50.2161 40.5821 49.9529 40.661 49.7021 40.7772C49.6566 41.0867 49.6606 42.5329 49.7073 42.7893C49.7529 42.7998 49.8037 42.8195 49.8552 42.8219C50.0177 42.8294 50.1811 42.8415 50.3429 42.8316C50.6572 42.8125 50.849 42.6593 50.9273 42.3565C51.0355 41.9383 51.0316 41.5159 50.9199 41.0985C50.8675 40.9025 50.7627 40.7399 50.5059 40.6587Z" fill="white"/>
<path d="M46.1695 43.7433C45.9347 43.7358 45.7314 43.7283 45.5161 43.7203C45.4574 43.8911 45.4856 44.0542 45.4813 44.2133C45.4768 44.3872 45.4803 44.5613 45.4803 44.7354C45.4803 44.8974 45.4803 45.0595 45.4803 45.2338C45.3006 45.3027 45.1269 45.2686 44.9585 45.2708C44.7985 45.2728 44.6356 45.2929 44.507 45.2593C44.4727 45.2284 44.4629 45.2225 44.4575 45.2139C44.452 45.2049 44.4486 45.1934 44.4481 45.1829C44.4445 45.107 44.4394 45.0312 44.4395 44.9553C44.4403 43.2696 44.4416 41.5839 44.444 39.8982C44.444 39.8782 44.4579 39.8583 44.4653 39.8385C44.6758 39.7773 44.9754 39.7679 45.4282 39.8083C45.4532 39.8519 45.4789 39.8966 45.5072 39.9459C45.5399 39.9377 45.5737 39.936 45.6005 39.9215C45.8824 39.7682 46.1782 39.681 46.5037 39.6963C47.1022 39.7244 47.5108 40.0113 47.7017 40.5786C47.7738 40.793 47.8196 41.0207 47.8436 41.2459C47.89 41.6795 47.8876 42.1153 47.799 42.5452C47.7707 42.6826 47.7287 42.8192 47.6766 42.9495C47.5442 43.2807 47.3058 43.5047 46.9683 43.6227C46.7195 43.7097 46.4636 43.7467 46.1695 43.7433ZM45.4738 41.4274C45.4738 41.6549 45.4704 41.8826 45.4747 42.11C45.479 42.334 45.453 42.5603 45.4985 42.8006C45.7605 42.8379 46.0065 42.8605 46.2525 42.8226C46.47 42.789 46.6324 42.6677 46.708 42.4542C46.7439 42.3531 46.7667 42.2464 46.7866 42.1406C46.8496 41.805 46.8272 41.4702 46.7494 41.141C46.6749 40.8255 46.4903 40.6534 46.1954 40.632C45.9454 40.6138 45.7038 40.6605 45.4738 40.8139C45.4738 40.9977 45.4738 41.1808 45.4738 41.4274Z" fill="white"/>
<path d="M27.4276 43.6815C26.9612 43.5557 26.7089 43.2481 26.5805 42.8283C26.4189 42.3 26.4069 41.7579 26.4734 41.2146C26.4982 41.0112 26.5444 40.8077 26.606 40.6122C26.7557 40.1371 27.1137 39.7438 27.8217 39.6997C28.036 39.6864 28.2535 39.7174 28.4691 39.7333C28.5869 39.742 28.7038 39.7618 28.824 39.777C28.8898 39.6031 28.8561 39.4392 28.8613 39.2791C28.8668 39.1055 28.8586 38.9314 28.8637 38.7577C28.8683 38.5978 28.8385 38.4346 28.895 38.2562C29.2209 38.243 29.5408 38.2404 29.8388 38.2568C29.8681 38.2853 29.8778 38.2918 29.8831 38.3008C29.8882 38.3096 29.8907 38.3209 29.8912 38.3313C29.8944 38.4072 29.8991 38.4831 29.899 38.559C29.8984 40.2212 29.8972 41.8834 29.8952 43.5456C29.8952 43.5661 29.882 43.5866 29.8713 43.6178C29.836 43.6261 29.795 43.6436 29.7538 43.6441C29.5262 43.6473 29.2984 43.6417 29.0709 43.6488C28.9622 43.6522 28.8856 43.6065 28.8102 43.5229C28.3758 43.7038 27.9281 43.8141 27.4276 43.6815ZM28.8619 40.7947C28.8608 40.7226 28.8347 40.6645 28.7573 40.655C28.5757 40.6326 28.3937 40.6097 28.2111 40.598C27.9065 40.5783 27.6549 40.6988 27.5602 41.1001C27.4646 41.5051 27.4594 41.9161 27.55 42.3241C27.6226 42.651 27.8135 42.8121 28.1451 42.8066C28.3806 42.8028 28.6163 42.7722 28.8295 42.6829C28.8424 42.6493 28.8567 42.6295 28.8568 42.6095C28.8598 42.0249 28.8613 41.4403 28.8619 40.7947Z" fill="white"/>
<path d="M70.4751 42.7602C70.4751 43.0634 70.4751 43.3342 70.4751 43.5988C70.2117 43.6627 69.7155 43.6637 69.4448 43.6021C69.442 43.5002 69.437 43.3934 69.4364 43.2867C69.4353 42.6998 69.4398 42.1129 69.4325 41.526C69.4303 41.3537 69.4035 41.1805 69.3739 41.01C69.3337 40.7747 69.1741 40.6549 68.9475 40.6289C68.8415 40.6167 68.7304 40.6223 68.6249 40.641C68.4787 40.6668 68.3202 40.6593 68.1829 40.7815C68.16 41.247 68.1762 41.7239 68.1728 42.2004C68.1695 42.666 68.1745 43.1317 68.17 43.5891C67.9406 43.6591 67.6571 43.6689 67.1793 43.6295C67.0978 43.54 67.133 43.4263 67.1324 43.3227C67.1302 42.1598 67.1313 40.9969 67.1313 39.834C67.1313 39.4101 67.1302 38.9863 67.1319 38.5624C67.1319 38.4661 67.1391 38.3699 67.1436 38.2607C67.4835 38.2607 67.8061 38.2607 68.1449 38.2607C68.1544 38.342 68.1706 38.4151 68.1706 38.4882C68.1734 38.8904 68.1711 39.2925 68.1728 39.6946C68.1734 39.7669 68.1856 39.8392 68.1946 39.9317C68.3045 39.8903 68.3955 39.8593 68.4837 39.8225C68.7499 39.7117 69.0262 39.6775 69.312 39.694C69.8428 39.7247 70.1765 39.9796 70.3401 40.4917C70.4266 40.7622 70.4696 41.0415 70.4712 41.3258C70.474 41.7931 70.474 42.2604 70.4751 42.7602Z" fill="white"/>
<path d="M60.4538 39.7669C60.7948 39.7413 61.1079 39.7074 61.4211 39.7017C61.5924 39.6985 61.7677 39.728 61.9351 39.7688C62.3135 39.8612 62.5675 40.0968 62.6573 40.4829C62.6936 40.6402 62.7143 40.8041 62.7171 40.9655C62.7254 41.4109 62.7199 41.8565 62.7204 42.302C62.7204 42.3781 62.7187 42.4542 62.721 42.5302C62.7293 42.7954 62.7383 42.8123 62.9766 43.0035C62.9677 43.227 62.9582 43.4638 62.9481 43.7172C62.5385 43.7808 62.1818 43.6979 61.848 43.4902C61.713 43.537 61.5813 43.5826 61.449 43.6287C61.147 43.7343 60.8356 43.7624 60.5191 43.7374C59.9682 43.6937 59.6138 43.3689 59.5413 42.8213C59.5145 42.6185 59.5156 42.4076 59.5368 42.204C59.577 41.8261 59.779 41.5569 60.1463 41.4355C60.2998 41.3849 60.4588 41.3453 60.6185 41.3242C60.8657 41.2916 61.1152 41.2797 61.3636 41.2579C61.4585 41.2495 61.5539 41.238 61.646 41.2283C61.7018 41.0955 61.6873 40.9757 61.6683 40.8601C61.6449 40.7177 61.5556 40.6263 61.4093 40.6064C61.3239 40.5947 61.2363 40.5891 61.1498 40.5917C60.7491 40.604 60.3483 40.6202 59.9476 40.6346C59.9063 40.6361 59.8644 40.6348 59.8058 40.6348C59.7679 40.3972 59.7561 40.1749 59.7656 39.9369C59.9788 39.8359 60.2088 39.8272 60.4538 39.7669ZM60.7329 42.8503C61.0639 42.9313 61.3814 42.8938 61.6823 42.7309C61.6823 42.5348 61.6828 42.3294 61.6812 42.1241C61.6812 42.0829 61.6706 42.0419 61.665 42.0049C61.4088 41.9696 60.9768 41.9945 60.8222 42.0547C60.6933 42.1051 60.6006 42.1962 60.5783 42.3353C60.5504 42.5086 60.5392 42.6836 60.7329 42.8503Z" fill="white"/>
<path d="M22.7063 42.9647C22.5774 42.6574 22.5247 42.3598 22.5196 42.0527C22.5136 41.6941 22.5102 41.3365 22.5902 40.9826C22.7541 40.2581 23.1633 39.7275 24.1505 39.6999C24.333 39.6948 24.5197 39.711 24.6991 39.7454C25.3582 39.8718 25.7432 40.2783 25.8527 40.9436C25.8934 41.1913 25.9171 41.4383 25.8664 41.6886C25.8367 41.8354 25.8603 41.9913 25.8014 42.1499C25.4306 42.1905 25.064 42.1635 24.6987 42.1683C24.3314 42.1732 23.964 42.1694 23.5993 42.1694C23.5665 42.5367 23.6789 42.7121 23.9921 42.7861C24.1069 42.8133 24.2281 42.8275 24.3459 42.8251C24.7141 42.8175 25.0822 42.7994 25.4503 42.7848C25.5361 42.7814 25.6218 42.776 25.7226 42.7707C25.7955 43.02 25.7704 43.2639 25.7593 43.5292C25.5965 43.5656 25.4403 43.6022 25.2833 43.6353C24.8783 43.7206 24.4688 43.7624 24.0555 43.7393C23.8835 43.7297 23.7091 43.7068 23.5427 43.6637C23.167 43.5666 22.8797 43.3506 22.7063 42.9647ZM24.0907 40.5546C23.6533 40.6803 23.5352 40.8629 23.5818 41.3418C23.8534 41.4003 24.6424 41.3943 24.8553 41.3316C24.8988 41.1663 24.8495 41.0101 24.7971 40.8571C24.7528 40.7275 24.6607 40.6314 24.5255 40.6009C24.4008 40.5727 24.2712 40.5661 24.0907 40.5546Z" fill="white"/>
<path d="M43.6126 43.7323C43.2302 43.7541 42.893 43.6968 42.6015 43.4973C42.3517 43.5696 42.1173 43.6519 41.8763 43.7038C41.5662 43.7706 41.2517 43.7723 40.9448 43.6734C40.6596 43.5815 40.456 43.3958 40.3527 43.1125C40.2228 42.7559 40.209 42.3917 40.3089 42.0246C40.379 41.7672 40.5366 41.576 40.7804 41.4781C40.9593 41.4062 41.1509 41.356 41.3416 41.3263C41.5871 41.288 41.8374 41.2803 42.0856 41.2585C42.181 41.2501 42.2763 41.2392 42.3701 41.2296C42.4346 41.1022 42.4148 40.9824 42.4003 40.8667C42.3816 40.7181 42.2974 40.6303 42.1504 40.6085C42.0439 40.5927 41.9345 40.5907 41.8266 40.5931C41.405 40.6026 40.9834 40.6164 40.5448 40.6291C40.4855 40.3981 40.4966 40.1663 40.513 39.9157C41.199 39.7491 41.8743 39.6173 42.5729 39.7483C43.221 39.8698 43.3877 40.2955 43.437 40.7037C43.4499 40.811 43.4482 40.9204 43.4486 41.0289C43.4497 41.4633 43.4491 41.8977 43.4491 42.3321C43.4491 42.3972 43.4492 42.4624 43.4498 42.5275C43.4518 42.7216 43.4926 42.8958 43.6879 42.9765C43.6879 43.1963 43.6903 43.402 43.6858 43.6075C43.6849 43.6468 43.6566 43.6854 43.6126 43.7323ZM42.4087 42.697C42.4101 42.5781 42.4155 42.4592 42.412 42.3405C42.4086 42.2249 42.4324 42.1054 42.3806 41.9767C42.1152 41.9711 41.86 41.9898 41.6074 42.0414C41.4417 42.0753 41.3421 42.1853 41.308 42.3456C41.2734 42.5085 41.2743 42.675 41.4067 42.7988C41.4578 42.8465 41.5374 42.8844 41.6062 42.8885C41.8761 42.9045 42.1437 42.8884 42.4087 42.697Z" fill="white"/>
<path d="M37.8873 40.4392C38.0769 40.8584 38.1308 41.2722 38.0663 41.7027C38.0455 41.8419 38.0312 41.982 38.0111 42.1442C37.9262 42.1527 37.8432 42.1679 37.7602 42.1682C37.2071 42.1703 36.6539 42.1691 36.1007 42.1696C35.9937 42.1697 35.8867 42.1729 35.7801 42.1747C35.7823 42.575 35.8935 42.7287 36.229 42.7977C36.3344 42.8193 36.4445 42.8283 36.552 42.8257C36.9096 42.8171 37.267 42.8011 37.6244 42.787C37.7206 42.7832 37.8166 42.776 37.9244 42.7696C37.9961 43.0266 37.9523 43.2722 37.9635 43.5279C37.2442 43.6991 36.5448 43.8314 35.8243 43.6829C35.3099 43.577 34.9784 43.2693 34.8288 42.7636C34.681 42.264 34.6838 41.7556 34.7436 41.2452C34.7612 41.0951 34.7964 40.9454 34.8389 40.8C35.0137 40.2026 35.3984 39.8373 36.0209 39.7315C36.3805 39.6705 36.7343 39.6845 37.083 39.7854C37.4319 39.8864 37.6996 40.0958 37.8873 40.4392ZM36.9748 40.8052C36.883 40.6334 36.7216 40.5757 36.5452 40.5542C36.3598 40.5316 36.174 40.5451 36.0147 40.6526C35.9461 40.6989 35.8822 40.7695 35.8465 40.8436C35.7717 40.9998 35.7221 41.1663 35.7693 41.3432C36.0692 41.4024 36.8443 41.3937 37.0502 41.3282C37.0796 41.1657 37.0548 41.008 36.9748 40.8052Z" fill="white"/>
<path d="M10.5439 42.6213C10.3831 42.0732 10.3754 41.5439 10.4913 41.0153C10.5304 40.837 10.599 40.6601 10.6838 40.4982C10.9503 39.9901 11.4016 39.7613 11.9521 39.7062C12.201 39.6813 12.4495 39.6941 12.6964 39.7507C13.1844 39.8623 13.5342 40.1402 13.7494 40.5929C13.922 40.9559 13.9638 41.3441 13.9654 41.7373C13.9666 42.0204 13.9351 42.3023 13.8544 42.5758C13.6461 43.2816 13.1109 43.7043 12.3746 43.7389C12.1473 43.7496 11.9212 43.7452 11.6948 43.6951C11.1907 43.5834 10.8396 43.2915 10.6229 42.8283C10.5953 42.7693 10.5745 42.7072 10.5439 42.6213ZM12.5754 42.754C12.7154 42.6556 12.7963 42.5174 12.8357 42.3544C12.9366 41.9364 12.9369 41.5167 12.8395 41.0985C12.8202 41.0154 12.7852 40.9324 12.7407 40.8597C12.6516 40.714 12.519 40.6215 12.3464 40.6037C12.2503 40.5937 12.1517 40.5924 12.0554 40.6008C11.8567 40.6184 11.7105 40.726 11.6191 40.8993C11.5743 40.9843 11.5442 41.0796 11.5218 41.1736C11.4582 41.4399 11.4471 41.7123 11.4781 41.9824C11.4978 42.153 11.5364 42.3258 11.5964 42.4865C11.6734 42.6929 11.8348 42.8132 12.0593 42.8474C12.2258 42.8728 12.3817 42.852 12.5754 42.754Z" fill="white"/>
<path d="M56.303 43.5253C55.9492 43.3149 55.735 43.0196 55.6209 42.657C55.4235 42.0292 55.4189 41.3941 55.6253 40.7684C55.7796 40.3008 56.0841 39.9603 56.5633 39.8035C57.0196 39.6542 57.4789 39.6542 57.936 39.8006C58.3284 39.9263 58.6147 40.1825 58.7894 40.5521C58.8676 40.7169 58.9256 40.8959 58.9619 41.0748C59.0601 41.5594 59.054 42.0474 58.9284 42.5264C58.7308 43.2802 58.176 43.7118 57.3952 43.7422C57.0212 43.7568 56.6601 43.7156 56.303 43.5253ZM57.8573 40.9649C57.8434 40.9356 57.8317 40.9047 57.8144 40.8774C57.6374 40.597 57.369 40.5553 57.0743 40.6073C56.8086 40.6542 56.6668 40.843 56.6047 41.0894C56.4968 41.5173 56.496 41.9496 56.6134 42.3752C56.7031 42.6997 56.9319 42.859 57.2612 42.8556C57.5799 42.8523 57.7887 42.7011 57.888 42.3914C57.921 42.2889 57.9478 42.1813 57.9556 42.0744C57.9812 41.7172 57.9969 41.3593 57.8573 40.9649Z" fill="white"/>
<path d="M7.00836 39.7895C7.13472 39.7896 7.23173 39.7896 7.3356 39.7896C7.3745 39.8474 7.40916 39.899 7.45029 39.9601C7.54635 39.917 7.64307 39.8703 7.74226 39.8297C8.09383 39.6853 8.45327 39.6533 8.8241 39.7487C9.13928 39.8298 9.3636 40.0164 9.49989 40.31C9.6156 40.559 9.67331 40.8239 9.6929 41.0962C9.70534 41.2694 9.7078 41.4436 9.70836 41.6173C9.7102 42.1822 9.70908 42.7471 9.70914 43.312C9.70914 43.4089 9.70914 43.5057 9.70914 43.6066C9.52987 43.6935 9.35539 43.6514 9.18767 43.6546C9.02827 43.6577 8.86557 43.6776 8.68947 43.6309C8.683 43.5497 8.67234 43.4767 8.67217 43.4037C8.67072 42.8388 8.67234 42.2739 8.67067 41.709C8.67022 41.557 8.66916 41.4043 8.6547 41.2533C8.64443 41.1464 8.61976 41.0389 8.58605 40.9367C8.53442 40.7804 8.41995 40.6918 8.25759 40.655C8.04873 40.6078 7.84786 40.6503 7.64676 40.6943C7.5747 40.71 7.506 40.7408 7.42283 40.7692C7.39688 41.0155 7.41301 41.2535 7.41016 41.4903C7.4072 41.7293 7.40949 41.9683 7.40949 42.2073C7.40949 42.4354 7.40949 42.6636 7.40949 42.8917C7.40949 43.1299 7.40949 43.368 7.40949 43.6074C7.22849 43.6932 7.05334 43.6517 6.88434 43.6546C6.72477 43.6573 6.56179 43.6788 6.40428 43.6343C6.39135 43.5925 6.37409 43.5626 6.37405 43.5327C6.37263 42.3269 6.37259 41.1211 6.37371 39.9152C6.37374 39.8848 6.38877 39.8544 6.39939 39.8141C6.59087 39.7649 6.78633 39.7999 7.00836 39.7895Z" fill="white"/>
<path d="M63.8758 43.2322C63.7078 42.9953 63.6302 42.7458 63.5845 42.4884C63.494 41.9809 63.4935 41.4708 63.5839 40.9631C63.6085 40.8249 63.6509 40.6885 63.6978 40.5559C63.8485 40.1341 64.1482 39.8709 64.5796 39.7674C64.7471 39.7273 64.9218 39.7074 65.0942 39.6993C65.5201 39.6793 65.9298 39.7831 66.3445 39.8591C66.3986 40.0043 66.369 40.1349 66.369 40.2621C66.3696 40.3901 66.3578 40.5181 66.3511 40.6613C66.2803 40.6669 66.2284 40.6766 66.1776 40.674C66.004 40.665 65.831 40.6456 65.6579 40.6419C65.4961 40.6385 65.332 40.6369 65.1718 40.6576C64.8336 40.7014 64.67 40.8611 64.6176 41.1977C64.5634 41.5433 64.5645 41.8921 64.6176 42.2378C64.6672 42.5636 64.8157 42.7211 65.1366 42.7782C65.2946 42.8062 65.4592 42.8052 65.6205 42.8019C65.8047 42.798 65.9884 42.7753 66.172 42.7645C66.2239 42.7615 66.2758 42.7716 66.3439 42.7769C66.3523 42.8524 66.364 42.9147 66.3645 42.9773C66.3668 43.1712 66.3657 43.3652 66.3657 43.5762C65.8382 43.7015 65.3169 43.7864 64.7845 43.7264C64.43 43.6863 64.1147 43.5491 63.8758 43.2322Z" fill="white"/>
<path d="M21.693 43.6138C21.357 43.6581 21.0455 43.6563 20.7205 43.6282C20.7127 43.5528 20.7016 43.4906 20.7004 43.4281C20.6653 41.6841 20.683 38.6071 20.7318 38.2665C20.8838 38.2276 21.0456 38.2521 21.2047 38.2481C21.3665 38.2439 21.5285 38.2472 21.7003 38.2472C21.7149 38.3157 21.735 38.3664 21.7351 38.4172C21.7368 40.1011 21.7367 41.785 21.7358 43.4689C21.7358 43.5115 21.7234 43.5541 21.693 43.6138Z" fill="white"/>
<path d="M52.8168 41.1941C52.8168 40.7172 52.8168 40.2728 52.8168 39.8342C53.072 39.7782 53.4945 39.7737 53.8224 39.8215C53.8371 39.9187 53.8526 40.0219 53.8719 40.1505C54.2653 39.998 54.6214 39.7639 55.0613 39.7163C55.096 40.0554 55.0721 40.3782 55.0781 40.7133C55.0012 40.7423 54.9341 40.7743 54.8636 40.7932C54.6022 40.8631 54.339 40.9266 54.0779 40.9973C54.007 41.0165 53.9406 41.0526 53.8558 41.0877C53.8558 41.5159 53.8559 41.9387 53.8558 42.3616C53.8556 42.782 53.8564 43.2025 53.855 43.6384C53.4984 43.6682 53.1785 43.6627 52.8804 43.6469C52.8509 43.6188 52.8414 43.6126 52.8361 43.6039C52.8307 43.5949 52.8268 43.5834 52.8267 43.5729C52.8231 42.7909 52.82 42.0089 52.8168 41.1941Z" fill="white"/>
<path d="M13.4263 25.993C13.4263 25.8548 13.4263 25.7478 13.4263 25.6281C13.6098 25.5616 13.7827 25.5971 13.9507 25.5912C14.1236 25.5853 14.297 25.5874 14.4701 25.5906C14.6411 25.5937 14.8135 25.5747 14.9793 25.6066C15.0335 25.8562 15.0378 26.9058 14.9885 27.1955C14.7606 27.241 13.868 27.2511 13.458 27.2109C13.4481 27.1547 13.4286 27.094 13.428 27.033C13.4249 26.6968 13.4264 26.3605 13.4263 25.993Z" fill="white"/>
<path d="M69.494 25.5907C69.6854 25.5988 69.8473 25.5715 70.0008 25.609C70.0449 25.8672 70.0555 26.6786 70.0225 27.1946C69.9784 27.2057 69.9288 27.2284 69.8797 27.2288C69.4683 27.2318 69.057 27.2313 68.6456 27.2302C68.5937 27.2301 68.5424 27.2199 68.4955 27.2149C68.4519 26.9547 68.4413 26.1063 68.4754 25.6265C68.5301 25.6154 68.5898 25.5935 68.6501 25.5926C68.9208 25.5887 69.1915 25.5908 69.494 25.5907Z" fill="white"/>
<path d="M4.51282 27.0647C4.51441 26.6109 4.51641 26.1872 4.52013 25.7635C4.5203 25.7439 4.53589 25.7245 4.55347 25.6838C4.92878 25.642 5.3152 25.6793 5.71216 25.6628C5.79273 25.9316 5.74634 26.1913 5.75231 26.4465C5.75809 26.6943 5.76638 26.9436 5.74282 27.2045C5.66312 27.2125 5.60102 27.2236 5.53886 27.2239C5.24603 27.2256 4.95319 27.2233 4.66036 27.2245C4.57012 27.2249 4.51592 27.1909 4.51282 27.0647Z" fill="white"/>
<path d="M3.6315 27.2245C3.34236 27.2228 3.08466 27.2212 2.83274 27.2195C2.77928 26.9706 2.76797 26.1125 2.8082 25.714C3.01398 25.6536 3.65055 25.6445 3.98773 25.6971C4.03674 25.9268 4.04698 26.7898 4.00386 27.1914C3.89911 27.252 3.77754 27.2125 3.6315 27.2245Z" fill="white"/>
<path d="M50.2736 35.0434C50.2736 34.6325 50.2736 34.2525 50.2736 33.8655C50.4854 33.7892 50.6915 33.8301 50.8928 33.8253C51.0857 33.8206 51.28 33.8106 51.4678 33.8349C51.5252 34.0766 51.5322 34.9552 51.4827 35.2643C51.2602 35.3155 50.7218 35.3247 50.3043 35.2816C50.2946 35.2164 50.2841 35.1454 50.2736 35.0434Z" fill="white"/>
<path d="M90.3309 42.2204C89.8397 42.1279 89.3352 42.1451 88.8278 42.2208C88.6693 42.2444 88.5047 42.2244 88.3406 42.2126C88.8407 42.0916 89.338 41.9584 89.8598 41.9739C90.0345 41.9791 90.2042 42.0066 90.3839 42.0887C90.3365 42.1019 90.2717 42.098 90.159 42.0795C89.861 42.0223 89.6115 42.0229 89.3631 42.0859C89.6198 42.0985 89.8766 42.111 90.1339 42.1236C90.1953 42.1506 90.2567 42.1777 90.3309 42.2204Z" fill="white"/>
</g>
<defs>
<clipPath id="clip0_169_955">
<rect width="94.3256" height="48" fill="white" transform="translate(0.837158)"/>
</clipPath>
</defs>
</svg>
